<svg width="209" height="91" viewBox="0 0 209 91" fill="none" xmlns="http://www.w3.org/2000/svg">
<g clip-path="url(#clip0_2_263)">
<path d="M57.59 61.405L57.06 60.925L56.53 61.405L54.12 63.575C54.84 63.645 55.58 63.685 56.35 63.685L57.06 63.045L57.76 63.685H60.09L57.6 61.405H57.59Z" fill="#010200"/>
<path d="M57.59 57.845L57.06 57.365L56.53 57.845L50.84 62.975C51.45 63.145 52.08 63.285 52.73 63.395L57.05 59.495L61.64 63.695H63.97L57.58 57.845H57.59Z" fill="#010200"/>
<path d="M25.68 60.725V58.615L20.2 63.505C20.92 63.595 21.64 63.645 22.38 63.675L25.68 60.725Z" fill="#010200"/>
<path d="M57.59 54.275L57.06 53.795L56.53 54.275L48.04 61.935C48.57 62.185 49.11 62.405 49.66 62.595L57.06 55.925L65.55 63.695H67.88L57.6 54.285L57.59 54.275Z" fill="#010200"/>
<path d="M25.68 57.165V55.055L16.93 62.865C17.55 63.035 18.18 63.175 18.81 63.295L25.68 57.165Z" fill="#010200"/>
<path d="M15.62 62.465L25.68 53.485V51.375L13.97 61.835C14.51 62.065 15.06 62.275 15.62 62.465Z" fill="#010200"/>
<path d="M57.59 50.595L57.06 50.115L56.53 50.595L45.54 60.505C46 60.815 46.46 61.105 46.94 61.365L57.06 52.245L69.31 63.455C69.69 63.265 70.22 62.955 70.65 62.545L57.6 50.605L57.59 50.595Z" fill="#010200"/>
<path d="M71.35 61.145V59.625L57.6 47.035L57.07 46.555L56.54 47.035L43.43 58.855C43.83 59.215 44.24 59.555 44.66 59.865L57.07 48.685L71.26 61.675C71.32 61.505 71.36 61.335 71.36 61.155" fill="#010200"/>
<path d="M12.89 61.335L25.53 50.045C25.36 49.405 25.04 48.975 24.7 48.675L11.98 60.035L3.57996 52.505C4.53996 54.215 5.73996 55.795 7.15996 57.215C8.84996 58.905 10.78 60.285 12.89 61.325" fill="#010200"/>
<path d="M11.45 58.115L11.97 58.585L12.5 58.115L23.67 48.135C23.36 48.045 23.13 48.045 23.13 48.045C22.58 48.045 22.06 47.995 21.56 47.905L11.97 56.475L1.42999 47.015C1.66999 48.025 1.97999 49.015 2.36999 49.975L11.45 58.125V58.115Z" fill="#010200"/>
<path d="M55.41 46.605C54.67 46.515 54.02 46.395 53.47 46.235L42.1 56.485L38.18 52.965L40.6 55.865L40.57 55.825C41.24 56.665 41.93 57.425 42.64 58.125L55.41 46.615V46.605Z" fill="#010200"/>
<path d="M57.59 43.475L57.07 42.985L56.54 43.465L56.39 43.595V45.715L57.06 45.115L71.27 58.115L71.35 58.025V56.055L57.59 43.475Z" fill="#010200"/>
<path d="M51.16 44.745L42.1 52.915L27.6 39.905L27.08 39.435L26.92 39.575C27.26 39.945 27.57 40.305 27.87 40.645L28.12 40.925L33.33 47.155L41.58 54.555L42.11 55.025L42.64 54.555L52.36 45.795C52 45.605 51.71 45.385 51.5 45.145L51.17 44.745H51.16Z" fill="#010200"/>
<path d="M57.59 39.905L57.07 39.425L56.54 39.905L56.39 40.035V42.155L57.06 41.555L71.27 54.555L71.35 54.465V52.495L57.59 39.905Z" fill="#010200"/>
<path d="M11.45 54.555L11.97 55.025L12.5 54.555L20.32 47.575C19.76 47.375 19.25 47.125 18.79 46.835L11.99 52.915L0.869995 42.945C0.899995 43.725 0.979995 44.495 1.1 45.265L11.46 54.555H11.45Z" fill="#010200"/>
<path d="M57.59 36.345L57.07 35.865L56.54 36.335L56.39 36.475V38.595L57.06 37.985L71.27 50.985L71.35 50.895V48.925L57.59 36.345Z" fill="#010200"/>
<path d="M11.45 50.995L11.97 51.465L12.5 50.995L17.88 46.185C17.46 45.835 17.1 45.445 16.8 45.045L11.98 49.355L0.959976 39.465C0.899976 40.125 0.859976 40.805 0.849976 41.485L11.45 50.995Z" fill="#010200"/>
<path d="M42.1 49.345L27.6 36.335L27.08 35.865L26.56 36.335L24.99 37.735C25.4 38.065 25.8 38.425 26.17 38.795L27.08 37.985L41.58 50.995L42.11 51.465L42.64 50.995L50.49 43.925L49.49 42.705L42.12 49.355L42.1 49.345Z" fill="#010200"/>
<path d="M11.45 47.425L11.97 47.895L12.5 47.425L16.21 44.115C15.93 43.565 15.74 43.015 15.67 42.485L11.98 45.785L1.42999 36.315C1.29999 36.915 1.19999 37.525 1.10999 38.145L11.45 47.425Z" fill="#010200"/>
<path d="M57.59 32.775L57.07 32.295L56.54 32.775L56.39 32.905V35.025L57.06 34.425L71.27 47.425L71.35 47.335V45.365L57.59 32.775Z" fill="#010200"/>
<path d="M42.1 45.785L27.6 32.775L27.08 32.305L26.55 32.775L22.53 36.365C23.07 36.545 23.59 36.795 24.07 37.095L27.07 34.415L41.57 47.425L42.1 47.895L42.63 47.425L48.79 41.875L47.79 40.655L42.1 45.785Z" fill="#010200"/>
<path d="M42.1 42.215L27.6 29.205L27.08 28.735L26.56 29.205L18.02 36.825C18.76 36.355 19.7 36.075 20.86 36.075C20.98 36.075 21.09 36.075 21.2 36.085L27.08 30.845L41.58 43.855L42.11 44.325L42.64 43.855L47.12 39.815L46.12 38.595L42.12 42.205L42.1 42.215Z" fill="#010200"/>
<path d="M57.59 29.215L57.07 28.735L56.54 29.215L56.39 29.345V31.465L57.06 30.855L71.27 43.855L71.35 43.775V41.795L57.59 29.215Z" fill="#010200"/>
<path d="M11.45 43.865L11.97 44.335L12.5 43.865L15.69 41.015C15.82 39.835 16.21 38.685 16.93 37.795L11.98 42.215L2.20996 33.455C2.02996 34.005 1.85996 34.555 1.70996 35.125L11.45 43.865Z" fill="#010200"/>
<path d="M57.59 25.645L57.07 25.165L56.54 25.645L56.39 25.775V27.895L57.06 27.295L71.27 40.295L71.35 40.205V38.235L57.59 25.645Z" fill="#010200"/>
<path d="M11.45 40.295L11.97 40.765L12.5 40.295L27.08 27.285L41.58 40.295L42.11 40.765L42.64 40.295L45.43 37.785L44.43 36.565L42.11 38.655L27.61 25.645L27.09 25.175L26.57 25.645L11.99 38.655L3.26999 30.845C3.02999 31.345 2.80999 31.845 2.60999 32.365L11.45 40.295Z" fill="#010200"/>
<path d="M57.59 22.085L57.07 21.605L56.54 22.085L56.39 22.215V24.335L57.06 23.725L71.27 36.735L71.35 36.645V34.675L57.59 22.085Z" fill="#010200"/>
<path d="M11.45 36.735L11.97 37.205L12.5 36.735L27.08 23.725L41.58 36.735L42.11 37.205L42.64 36.735L43.75 35.735L42.75 34.515L42.12 35.085L27.6 22.075L27.08 21.605L26.56 22.075L11.98 35.095L4.58997 28.465C4.29997 28.915 4.02997 29.375 3.77997 29.855L11.45 36.735Z" fill="#010200"/>
<path d="M11.45 33.175L11.97 33.645L12.5 33.175L26.83 20.375C26.24 20.165 25.65 19.995 25.0599 19.845L11.98 31.525L6.15995 26.305C5.82995 26.705 5.49995 27.125 5.19995 27.555L11.45 33.165V33.175Z" fill="#010200"/>
<path d="M41.75 33.325L38.87 29.835C35.39 25.365 31.65 22.315 27.68 20.705L41.58 33.175L41.75 33.325Z" fill="#010200"/>
<path d="M58.29 19.155C57.71 19.335 56.91 19.745 56.56 20.615L57.06 20.165L71.27 33.165L71.35 33.075V31.105L58.29 19.155Z" fill="#010200"/>
<path d="M11.98 30.075L12.51 29.605L23.73 19.585C23.03 19.475 22.32 19.395 21.61 19.365L11.98 27.965L7.99 24.385C7.61 24.745 7.23 25.115 6.88 25.505L11.46 29.615L11.98 30.085V30.075Z" fill="#010200"/>
<path d="M62.03 19.015H59.7L71.27 29.605L71.35 29.515V27.545L62.03 19.015Z" fill="#010200"/>
<path d="M65.92 19.015H63.59L71.27 26.035L71.35 25.945V23.975L65.92 19.015Z" fill="#010200"/>
<path d="M11.45 26.045L11.97 26.515L12.5 26.045L19.97 19.375C19.05 19.415 18.14 19.525 17.26 19.685L11.98 24.395L10.08 22.695C9.63999 23.005 9.21999 23.325 8.79999 23.665L11.45 26.035V26.045Z" fill="#010200"/>
<path d="M11.98 22.945L12.51 22.475L14.98 20.265C13.58 20.715 12.26 21.325 11.02 22.085L11.45 22.475L11.97 22.945H11.98Z" fill="#010200"/>
<path d="M68.81 19.015H67.49L71.27 22.475L71.35 22.385V21.555C71.35 19.415 68.81 19.015 68.81 19.015Z" fill="#010200"/>
<path d="M21.87 78.275C22.56 78.275 23.11 77.715 23.11 77.035V71.885C23.11 71.205 22.55 70.645 21.87 70.645C21.19 70.645 20.64 71.205 20.64 71.885V77.035C20.64 77.725 21.19 78.275 21.87 78.275Z" fill="#010200"/>
<path d="M35.5 75.935V75.345H36.56C37.05 75.345 37.44 74.955 37.44 74.465C37.44 73.975 37.05 73.585 36.56 73.585H35.49V72.985H37.52C38.17 72.985 38.7 72.465 38.7 71.815C38.7 71.165 38.16 70.635 37.52 70.635H34.26C33.58 70.635 33.03 71.195 33.03 71.875V77.025C33.03 77.025 33.03 77.055 33.03 77.075C33.03 77.075 33.03 77.085 33.03 77.095V77.115C33.08 77.775 33.6 78.265 34.26 78.265H37.52C38.17 78.265 38.7 77.735 38.7 77.085C38.7 76.435 38.16 75.915 37.52 75.915H35.5V75.935Z" fill="#010200"/>
<path d="M55.28 70.645C54.6 70.645 54.05 71.205 54.05 71.885V77.035C54.05 77.725 54.6 78.275 55.28 78.275C55.96 78.275 56.52 77.715 56.52 77.035V71.885C56.52 71.195 55.96 70.645 55.28 70.645Z" fill="#010200"/>
<path d="M59.15 70.645H58.99C58.34 70.645 57.81 71.175 57.81 71.825C57.81 72.475 58.34 73.005 58.99 73.005H59.06H59.16H59.94V77.045C59.94 77.735 60.49 78.285 61.17 78.285C61.85 78.285 62.41 77.725 62.41 77.045V73.005H63H63.1H63.37C64.01 73.005 64.54 72.475 64.54 71.825C64.54 71.175 64.01 70.645 63.37 70.645H63.1H63H59.16H59.15Z" fill="#010200"/>
<path d="M10.75 74.455V71.885C10.75 71.185 10.2 70.645 9.50997 70.645C8.81997 70.645 8.27997 71.205 8.27997 71.885V74.465C8.27997 75.195 7.70997 75.795 6.97997 75.825C6.25997 75.795 5.68997 75.205 5.68997 74.465V71.885C5.68997 71.205 5.13997 70.645 4.45997 70.645C3.77997 70.645 3.21997 71.195 3.21997 71.885V74.455C3.21997 76.535 4.90997 78.245 6.97997 78.275H6.98997C9.05997 78.245 10.75 76.535 10.75 74.455Z" fill="#010200"/>
<path d="M14.37 71.075C14.14 70.805 13.79 70.645 13.42 70.645C12.75 70.645 12.19 71.215 12.19 71.885V77.035C12.19 77.715 12.74 78.275 13.42 78.275C14.1 78.275 14.66 77.715 14.66 77.035V75.185L14.83 75.395C14.83 75.395 15.23 75.875 15.22 75.875L16.92 77.855C17.15 78.125 17.5 78.285 17.86 78.285C18.53 78.285 19.1 77.725 19.1 77.055C19.1 77.015 19.1 76.965 19.1 76.905V71.895C19.1 71.205 18.55 70.655 17.87 70.655C17.19 70.655 16.63 71.215 16.63 71.895V73.705L16.46 73.505L14.37 71.075Z" fill="#010200"/>
<path d="M70.22 75.935H68.2V75.345H69.26C69.75 75.345 70.14 74.955 70.14 74.465C70.14 73.975 69.75 73.585 69.26 73.585H68.19V72.985H70.22C70.87 72.985 71.4 72.465 71.4 71.815C71.4 71.165 70.86 70.635 70.22 70.635H68.25L69.57 70.005C69.8 69.895 69.95 69.675 69.95 69.425C69.95 69.065 69.64 68.745 69.28 68.745C69.21 68.745 69.12 68.765 69 68.815L67.61 69.465C67.38 69.575 67.23 69.815 67.23 70.075C67.23 70.315 67.36 70.525 67.58 70.645H67.53H66.96C66.28 70.645 65.73 71.205 65.73 71.885V77.035C65.73 77.715 66.28 78.275 66.96 78.275H70.22C70.87 78.275 71.4 77.745 71.4 77.095C71.4 76.445 70.86 75.925 70.22 75.925" fill="#010200"/>
<path d="M27.97 73.965L26.7 71.445C26.48 70.965 26 70.655 25.5 70.655C24.77 70.655 24.31 71.305 24.31 71.895C24.31 72.105 24.36 72.305 24.45 72.505C24.45 72.505 26.98 77.665 26.97 77.655C27 77.715 27.32 78.275 28.04 78.275C28.35 78.275 28.89 78.195 29.15 77.645L31.58 72.505C31.67 72.325 31.71 72.115 31.71 71.905C31.71 71.285 31.27 70.655 30.52 70.655C30.02 70.655 29.55 70.965 29.32 71.445L28.13 73.965L28.05 74.145L27.96 73.965H27.97Z" fill="#010200"/>
<path d="M45.7199 76.235L45.2599 75.755L45.1999 75.695L45.2599 75.625C45.7399 75.075 46.0099 74.375 46.0099 73.645C46.0099 71.995 44.6699 70.655 43.0299 70.655H41.2999C40.6199 70.655 40.0699 71.215 40.0699 71.895C40.0699 71.895 40.0699 77.125 40.0699 77.115C40.1099 77.785 40.6399 78.285 41.2999 78.285C41.9599 78.285 42.4999 77.785 42.5399 77.115V77.025H43.1399L43.1699 77.055L43.8499 77.845C44.0899 78.125 44.4299 78.285 44.7899 78.285C45.4599 78.285 46.0299 77.715 46.0299 77.045C46.0299 76.755 45.9299 76.485 45.7199 76.235Z" fill="#010200"/>
<path d="M50.04 78.275C49.66 78.275 49.3 78.225 48.96 78.135C48.63 78.045 48.34 77.915 48.09 77.745C47.84 77.575 47.65 77.385 47.52 77.165C47.38 76.945 47.31 76.705 47.31 76.445C47.31 76.295 47.34 76.155 47.39 76.025C47.44 75.895 47.52 75.785 47.62 75.685C47.72 75.585 47.83 75.505 47.97 75.455C48.1 75.395 48.25 75.365 48.4 75.365C48.54 75.365 48.68 75.395 48.82 75.445C48.95 75.495 49.1 75.585 49.25 75.715C49.38 75.815 49.49 75.895 49.56 75.955C49.64 76.015 49.71 76.055 49.76 76.095C49.81 76.125 49.85 76.145 49.89 76.155C49.93 76.155 49.97 76.165 50.01 76.165C50.1 76.165 50.18 76.135 50.23 76.075C50.28 76.015 50.31 75.945 50.31 75.845C50.31 75.725 50.25 75.625 50.12 75.545C50.11 75.545 50.09 75.525 50.07 75.515C50.05 75.505 50.03 75.495 49.99 75.475C49.96 75.465 49.91 75.445 49.86 75.425C49.81 75.405 49.73 75.375 49.64 75.335C49.54 75.295 49.44 75.265 49.35 75.235C49.26 75.205 49.16 75.165 49.06 75.135C48.01 74.765 47.48 74.075 47.48 73.065C47.48 72.715 47.55 72.385 47.67 72.095C47.8 71.805 47.98 71.555 48.21 71.345C48.44 71.135 48.72 70.975 49.05 70.855C49.38 70.735 49.74 70.685 50.13 70.685C50.46 70.685 50.76 70.725 51.04 70.815C51.32 70.895 51.57 71.015 51.78 71.155C51.99 71.295 52.15 71.465 52.27 71.655C52.39 71.845 52.45 72.055 52.45 72.275C52.45 72.565 52.36 72.805 52.19 72.985C52.02 73.165 51.79 73.265 51.52 73.265C51.35 73.265 51.2 73.235 51.05 73.175C50.91 73.115 50.73 73.005 50.53 72.855C50.41 72.755 50.31 72.685 50.24 72.645C50.17 72.605 50.1 72.585 50.03 72.585C49.95 72.585 49.88 72.615 49.83 72.665C49.78 72.715 49.75 72.785 49.75 72.865C49.75 72.975 49.8 73.055 49.9 73.125C50 73.195 50.19 73.275 50.47 73.365C50.78 73.455 51.08 73.575 51.35 73.705C51.63 73.835 51.85 73.975 52.02 74.125C52.25 74.315 52.42 74.555 52.55 74.855C52.68 75.155 52.75 75.475 52.75 75.825C52.75 76.155 52.69 76.465 52.57 76.765C52.45 77.065 52.28 77.325 52.07 77.555C51.82 77.805 51.54 77.985 51.21 78.105C50.88 78.225 50.49 78.285 50.04 78.285" fill="#010200"/>
<path d="M7.22996 82.195C7.69996 82.195 8.12996 82.285 8.53996 82.465C8.94996 82.645 9.30996 82.885 9.60996 83.195C9.90996 83.495 10.15 83.855 10.33 84.265C10.51 84.675 10.59 85.115 10.59 85.575C10.59 86.005 10.52 86.415 10.37 86.785C10.23 87.155 10.03 87.495 9.76996 87.785L10.25 88.345C10.49 88.635 10.61 88.955 10.61 89.295C10.61 89.485 10.57 89.675 10.5 89.855C10.42 90.035 10.32 90.195 10.19 90.325C10.06 90.455 9.89996 90.565 9.71996 90.645C9.53996 90.725 9.34996 90.765 9.14996 90.765C8.94996 90.765 8.73996 90.725 8.54996 90.635C8.35996 90.545 8.18996 90.415 8.04996 90.255L7.22996 89.305H6.79996C6.79996 89.515 6.75996 89.705 6.68996 89.885C6.60996 90.065 6.50996 90.215 6.37996 90.345C6.24996 90.475 6.08996 90.585 5.90996 90.655C5.72996 90.735 5.53996 90.765 5.33996 90.765C5.13996 90.765 4.94996 90.725 4.77996 90.655C4.59996 90.575 4.44996 90.475 4.31996 90.345C4.18996 90.215 4.07996 90.055 4.00996 89.885C3.92996 89.705 3.89996 89.515 3.89996 89.305V83.665C3.89996 83.465 3.93996 83.275 4.00996 83.095C4.08996 82.915 4.18996 82.755 4.31996 82.625C4.44996 82.495 4.60996 82.385 4.77996 82.315C4.95996 82.235 5.13996 82.205 5.33996 82.205H7.23996L7.22996 82.195Z" fill="#010200"/>
<path d="M17.89 82.195C18.08 82.195 18.26 82.235 18.43 82.305C18.6 82.385 18.74 82.485 18.87 82.605C18.99 82.725 19.09 82.875 19.17 83.045C19.25 83.215 19.28 83.395 19.28 83.585C19.28 83.775 19.24 83.955 19.17 84.125C19.09 84.295 18.99 84.445 18.87 84.565C18.74 84.695 18.6 84.785 18.43 84.865C18.26 84.935 18.08 84.975 17.89 84.975H15.74V85.415H16.85C17.15 85.415 17.4 85.515 17.61 85.725C17.82 85.935 17.92 86.185 17.92 86.485C17.92 86.785 17.82 87.035 17.61 87.245C17.4 87.455 17.15 87.555 16.85 87.555H15.74V87.985H17.89C18.08 87.985 18.26 88.025 18.43 88.095C18.6 88.165 18.74 88.265 18.87 88.395C18.99 88.525 19.09 88.665 19.17 88.835C19.25 88.995 19.28 89.175 19.28 89.365C19.28 89.555 19.24 89.745 19.17 89.915C19.09 90.085 18.99 90.235 18.87 90.355C18.74 90.475 18.6 90.575 18.43 90.645C18.26 90.715 18.08 90.755 17.89 90.755H14.32C14.11 90.755 13.92 90.715 13.74 90.645C13.56 90.565 13.41 90.465 13.28 90.335C13.15 90.205 13.05 90.045 12.97 89.865C12.89 89.685 12.86 89.495 12.86 89.295V83.655C12.86 83.455 12.9 83.265 12.97 83.085C13.05 82.905 13.15 82.745 13.28 82.615C13.41 82.485 13.56 82.375 13.74 82.305C13.92 82.225 14.11 82.195 14.32 82.195H17.89Z" fill="#010200"/>
<path d="M29.32 89.315C29.32 89.525 29.28 89.715 29.2 89.895C29.12 90.075 29.01 90.225 28.88 90.355C28.75 90.485 28.59 90.585 28.42 90.665C28.24 90.745 28.06 90.775 27.85 90.775C27.61 90.775 27.39 90.725 27.19 90.615C26.99 90.515 26.82 90.365 26.68 90.185L24.46 87.605V89.315C24.46 89.525 24.42 89.715 24.35 89.895C24.27 90.075 24.17 90.225 24.04 90.355C23.91 90.485 23.75 90.595 23.57 90.665C23.39 90.745 23.2 90.775 23 90.775C22.8 90.775 22.61 90.735 22.43 90.665C22.25 90.595 22.1 90.485 21.97 90.355C21.84 90.225 21.73 90.065 21.66 89.895C21.58 89.715 21.55 89.525 21.55 89.315V83.675C21.55 83.475 21.59 83.285 21.66 83.105C21.74 82.925 21.84 82.765 21.97 82.635C22.1 82.505 22.26 82.395 22.43 82.325C22.61 82.245 22.79 82.215 23 82.215C23.22 82.215 23.43 82.265 23.62 82.355C23.81 82.445 23.97 82.565 24.11 82.725L26.41 85.385V83.685C26.41 83.485 26.45 83.295 26.52 83.115C26.6 82.935 26.7 82.775 26.83 82.645C26.96 82.515 27.12 82.405 27.29 82.335C27.47 82.255 27.65 82.225 27.85 82.225C28.05 82.225 28.24 82.265 28.42 82.335C28.6 82.415 28.76 82.515 28.89 82.645C29.02 82.775 29.13 82.935 29.2 83.115C29.28 83.295 29.31 83.485 29.31 83.685V89.335L29.32 89.315Z" fill="#010200"/>
<path d="M39.46 89.315C39.46 89.525 39.42 89.715 39.34 89.895C39.26 90.075 39.1499 90.225 39.0199 90.355C38.8899 90.485 38.7299 90.585 38.5599 90.665C38.38 90.745 38.1899 90.775 37.99 90.775C37.75 90.775 37.53 90.725 37.33 90.615C37.13 90.515 36.96 90.365 36.83 90.185L34.6 87.605V89.315C34.6 89.525 34.56 89.715 34.49 89.895C34.41 90.075 34.31 90.225 34.18 90.355C34.05 90.485 33.89 90.595 33.71 90.665C33.53 90.745 33.34 90.775 33.14 90.775C32.94 90.775 32.75 90.735 32.58 90.665C32.4 90.595 32.25 90.485 32.12 90.355C31.99 90.225 31.8799 90.065 31.8099 89.895C31.7299 89.715 31.7 89.525 31.7 89.315V83.675C31.7 83.475 31.7399 83.285 31.8099 83.105C31.8899 82.925 31.99 82.765 32.12 82.635C32.25 82.505 32.41 82.395 32.58 82.325C32.76 82.245 32.94 82.215 33.14 82.215C33.36 82.215 33.57 82.265 33.76 82.355C33.95 82.445 34.11 82.565 34.25 82.725L36.55 85.385V83.685C36.55 83.485 36.59 83.295 36.66 83.115C36.74 82.935 36.8399 82.775 36.9699 82.645C37.0999 82.515 37.26 82.405 37.43 82.335C37.61 82.255 37.79 82.225 38 82.225C38.21 82.225 38.39 82.265 38.57 82.335C38.75 82.415 38.9099 82.515 39.0399 82.645C39.1699 82.775 39.28 82.935 39.35 83.115C39.43 83.295 39.46 83.485 39.46 83.685V89.335V89.315Z" fill="#010200"/>
<path d="M46.86 82.195C47.05 82.195 47.23 82.235 47.4 82.305C47.57 82.385 47.71 82.485 47.84 82.605C47.96 82.725 48.06 82.875 48.14 83.045C48.22 83.215 48.25 83.395 48.25 83.585C48.25 83.775 48.21 83.955 48.14 84.125C48.06 84.295 47.96 84.445 47.84 84.565C47.71 84.695 47.57 84.785 47.4 84.865C47.23 84.935 47.05 84.975 46.86 84.975H44.71V85.415H45.82C46.12 85.415 46.37 85.515 46.58 85.725C46.79 85.935 46.89 86.185 46.89 86.485C46.89 86.785 46.79 87.035 46.58 87.245C46.37 87.455 46.12 87.555 45.82 87.555H44.71V87.985H46.86C47.05 87.985 47.23 88.025 47.4 88.095C47.57 88.165 47.71 88.265 47.84 88.395C47.96 88.525 48.06 88.665 48.14 88.835C48.22 88.995 48.25 89.175 48.25 89.365C48.25 89.555 48.21 89.745 48.14 89.915C48.06 90.085 47.96 90.235 47.84 90.355C47.71 90.475 47.57 90.575 47.4 90.645C47.23 90.715 47.05 90.755 46.86 90.755H43.29C43.08 90.755 42.89 90.715 42.71 90.645C42.53 90.565 42.38 90.465 42.25 90.335C42.12 90.205 42.02 90.045 41.94 89.865C41.86 89.685 41.83 89.495 41.83 89.295V83.655C41.83 83.455 41.87 83.265 41.94 83.085C42.02 82.905 42.12 82.745 42.25 82.615C42.38 82.485 42.53 82.375 42.71 82.305C42.89 82.225 43.08 82.195 43.29 82.195H46.86Z" fill="#010200"/>
<path d="M51.72 86.765C51.51 86.685 51.34 86.575 51.19 86.425C51.05 86.275 50.93 86.115 50.83 85.935C50.73 85.755 50.66 85.555 50.62 85.355C50.58 85.145 50.55 84.935 50.55 84.725C50.55 84.345 50.62 84.005 50.77 83.695C50.91 83.385 51.11 83.115 51.36 82.895C51.61 82.675 51.9 82.505 52.23 82.385C52.56 82.265 52.9 82.205 53.26 82.205H53.69C53.94 82.205 54.21 82.255 54.5 82.325C54.79 82.395 55.06 82.505 55.31 82.645C55.56 82.785 55.76 82.975 55.93 83.195C56.09 83.415 56.18 83.675 56.18 83.975C56.18 84.275 56.09 84.495 55.92 84.685C55.75 84.875 55.51 84.975 55.22 84.975C55.16 84.975 55.1 84.975 55.04 84.965C54.98 84.965 54.92 84.945 54.86 84.915L53.87 84.545C53.81 84.525 53.76 84.495 53.7 84.465C53.64 84.435 53.58 84.415 53.53 84.395C53.47 84.375 53.42 84.375 53.36 84.395C53.3 84.405 53.25 84.445 53.2 84.495C53.1 84.635 53.09 84.745 53.16 84.845C53.23 84.945 53.34 85.025 53.48 85.095L53.7 85.165C54.11 85.315 54.48 85.465 54.83 85.605C55.18 85.745 55.47 85.915 55.73 86.125C55.98 86.325 56.18 86.575 56.32 86.875C56.46 87.175 56.54 87.545 56.54 88.005C56.54 88.415 56.47 88.785 56.32 89.125C56.18 89.465 55.98 89.755 55.73 89.995C55.48 90.235 55.18 90.425 54.83 90.565C54.48 90.705 54.11 90.775 53.71 90.785H53.28C52.98 90.785 52.66 90.725 52.32 90.615C51.98 90.515 51.67 90.365 51.39 90.175C51.11 89.985 50.88 89.755 50.69 89.485C50.5 89.215 50.41 88.905 50.41 88.565C50.41 88.415 50.43 88.285 50.48 88.155C50.53 88.025 50.59 87.905 50.68 87.795C50.76 87.695 50.87 87.605 50.99 87.545C51.11 87.485 51.25 87.445 51.39 87.445C51.45 87.445 51.52 87.445 51.58 87.465C51.64 87.485 51.7 87.505 51.77 87.525L53.29 88.165C53.35 88.185 53.41 88.205 53.46 88.205C53.51 88.205 53.57 88.185 53.63 88.145C53.69 88.105 53.73 88.035 53.74 87.935C53.74 87.835 53.72 87.735 53.66 87.645C53.64 87.625 53.62 87.605 53.58 87.575C53.54 87.545 53.5 87.525 53.46 87.495C53.41 87.465 53.36 87.435 53.29 87.425L51.75 86.785L51.72 86.765Z" fill="#010200"/>
<path d="M66.28 90.765C66.08 90.765 65.9 90.725 65.73 90.655C65.56 90.575 65.42 90.475 65.3 90.345C65.18 90.215 65.09 90.055 65.02 89.875C64.96 89.695 64.92 89.505 64.92 89.305C64.92 89.125 64.96 88.945 65.03 88.765C65.1 88.585 65.21 88.425 65.34 88.295L67.78 85.925V84.925L67.21 85.495C66.89 85.795 66.54 85.955 66.18 85.955C66 85.955 65.82 85.925 65.66 85.855C65.5 85.795 65.36 85.705 65.24 85.595C65.12 85.485 65.03 85.355 64.96 85.195C64.89 85.045 64.86 84.875 64.86 84.705C64.86 84.435 64.92 84.165 65.05 83.915C65.32 83.405 65.68 82.985 66.14 82.675C66.6 82.365 67.15 82.205 67.78 82.205H68.2C68.64 82.265 69.03 82.395 69.37 82.575C69.71 82.755 69.99 82.985 70.22 83.255C70.44 83.525 70.61 83.825 70.73 84.155C70.85 84.485 70.9 84.835 70.9 85.185C70.9 85.665 70.8 86.135 70.59 86.605C70.38 87.065 70.06 87.485 69.63 87.845C69.85 87.845 70.05 87.875 70.25 87.945C70.45 88.015 70.62 88.105 70.77 88.235C70.92 88.365 71.03 88.515 71.12 88.695C71.2 88.875 71.25 89.085 71.25 89.315C71.25 89.515 71.21 89.705 71.12 89.885C71.03 90.065 70.91 90.225 70.77 90.355C70.62 90.485 70.45 90.595 70.26 90.665C70.07 90.745 69.87 90.775 69.67 90.775H66.29L66.28 90.765Z" fill="#010200"/>
</g>
<g clip-path="url(#clip1_2_263)">
<path d="M102.97 43.685V41.115L99.84 38.935L94.35 40.345V28.865L91.22 26.685L88.39 27.405V44.435L91.52 46.615L102.96 43.685H102.97ZM88.75 27.645L90.97 27.075V41.535L99.58 39.325V41.315L88.75 44.095V27.645Z" fill="#222221"/>
<path d="M101.57 32.455L103.34 26.885V26.485L100.54 24.285L97.3899 25.095L97.0599 30.595L99.9499 32.865L101.57 32.455ZM97.4299 30.295L97.7199 25.355L100.24 24.705L98.5399 30.005L97.4199 30.295H97.4299Z" fill="#222221"/>
<path d="M118.98 39.585V37.075L115.85 34.895L109.57 36.505V34.325L117.18 32.375V30.085L114.05 27.905L109.57 29.055V27.225L118.48 24.945C118.58 25.975 119.01 26.605 119.8 27.365L121.7 29.185C122.99 30.425 125.29 30.335 127.25 30.745C126.74 31.725 125.42 32.625 123.78 33.045C121.82 33.545 119.94 33.345 118.58 32.485L118.28 32.685V35.515L121.37 37.675C122.59 38.255 124.53 38.485 127.15 37.765C130.75 36.845 133.24 34.115 133.24 31.105C133.24 29.705 132.83 28.785 131.86 28.115L129.26 26.275C128 25.375 125.99 25.285 124.16 25.135C124.49 23.995 125.79 22.985 127.54 22.545C129.05 22.155 130.92 22.365 132.34 22.995L132.62 22.795V20.105L129.52 17.935C128.19 17.445 126.34 17.455 124.52 17.955C121.44 18.745 119.2 20.815 118.62 23.245V22.665L115.49 20.485L103.77 23.485V40.515L106.9 42.695L118.98 39.605V39.585ZM124.52 18.275C126.24 17.795 127.97 17.785 129.24 18.225V20.415C127.83 19.855 126.24 19.745 124.77 20.125C122.53 20.695 120.98 22.135 120.98 23.635C120.98 27.175 130.12 23.605 130.12 28.995C130.12 31.815 127.68 34.365 124.13 35.275C121.64 35.955 119.82 35.765 118.64 35.245V32.945C120.03 33.705 121.89 33.855 123.79 33.365C126.11 32.765 127.86 31.235 127.86 29.735C127.86 26.245 118.82 29.735 118.82 24.375C118.82 21.615 121.13 19.145 124.52 18.275ZM104.13 23.715L115.24 20.865V22.775L106.32 25.055V30.215L113.8 28.295V30.245L106.32 32.165V37.665L115.6 35.285V37.215L104.12 40.155V23.705L104.13 23.715Z" fill="#222221"/>
<path d="M144.04 18.735C144.04 16.705 142.43 15.785 140 16.415L136.32 17.355V24.155L140 23.215C142.36 22.615 144.04 20.755 144.04 18.735ZM139.57 19.505L143.02 18.625C143.23 18.575 143.46 18.525 143.67 18.505C143.68 18.605 143.68 18.715 143.68 18.825C143.68 20.645 142.16 22.325 139.99 22.875L139.56 22.985V19.505H139.57Z" fill="#222221"/>
<path d="M139.7 34.275V28.185L142.89 27.365C146.62 26.405 149.31 23.275 149.31 19.915C149.31 18.295 148.73 17.135 147.51 16.295L145.01 14.565C144.06 13.895 142.28 13.595 140.07 14.165L133.74 15.785V32.815L136.87 34.995L139.7 34.275ZM136.32 31.915L134.1 32.485V16.035L140.08 14.505C143.63 13.595 146.31 14.855 146.31 18.045C146.31 21.235 143.7 24.185 139.87 25.165L136.33 26.075V31.925L136.32 31.915Z" fill="#222221"/>
<path d="M149.24 31.825L151.81 31.165L153.49 26.725L160.7 24.875L161.14 25.805L165.32 27.695L168.62 26.845L161.2 11.685L156.83 9.85498L153.7 10.655L146.32 29.525L149.23 31.815L149.24 31.825ZM153.94 10.945L156.68 10.245L163.83 24.865L161.42 25.485L159.74 21.915L150.89 24.185L149.19 28.625L146.8 29.235L153.95 10.955L153.94 10.945Z" fill="#222221"/>
<path d="M155.47 12.915L155.14 12.995L151.57 22.075L159.02 20.165L155.47 12.905V12.915ZM156.95 16.805L158.49 19.975L155.38 20.775L156.95 16.815V16.805Z" fill="#222221"/>
<path d="M170.31 23.935C172.11 25.115 174.18 25.695 177.17 24.925C179.14 24.415 181.15 23.465 182.39 22.385V19.715L179.21 17.615C177.79 18.825 176.28 19.625 174.64 20.045C173.47 20.345 172.4 20.405 171.49 20.245C170.91 19.585 170.65 18.645 170.65 17.365C170.65 13.745 173.33 10.575 177.27 9.56499C179.24 9.05499 181.14 9.415 182.09 10.035L182.39 9.835V7.17499L179.29 5.00499C177.93 4.53499 175.87 4.68499 174.19 5.11499C168.89 6.47499 164.95 11.285 164.95 16.355C164.95 18.985 166.03 21.015 167.79 22.175L170.31 23.935ZM174.19 5.44499C176 4.98499 177.86 4.92499 179.01 5.31499V7.47499C177.87 7.00499 176.18 6.97499 174.49 7.40499C170.36 8.46499 167.52 11.825 167.52 15.635C167.52 19.445 170.45 21.455 174.64 20.385C176.18 19.985 177.69 19.215 179.01 18.175V20.295C177.74 21.365 175.66 22.195 174.14 22.585C169.13 23.865 165.3 21.145 165.3 16.265C165.3 11.385 169.09 6.75499 174.19 5.44499Z" fill="#222221"/>
<path d="M197.94 19.355V16.845L194.81 14.665L188.53 16.275V14.095L196.14 12.145V9.85497L193.01 7.67497L188.53 8.82497V6.99497L197.57 4.67497V2.43497L194.44 0.254974L182.72 3.25497V20.285L185.85 22.465L197.93 19.375L197.94 19.355ZM183.08 3.48497L194.19 0.634974V2.54497L185.27 4.82497V9.98497L192.75 8.06497V10.015L185.27 11.935V17.435L194.55 15.055V16.985L183.07 19.925V3.48497H183.08Z" fill="#222221"/>
<path d="M100.72 54.905C100.72 51.165 97.98 49.375 93.88 50.425L90.98 51.165V63.645L94.18 62.825C98.14 61.815 100.72 58.555 100.72 54.905ZM94.35 53.405L96.9 52.755C98.26 52.405 99.14 52.385 99.9 52.695C100.2 53.335 100.36 54.115 100.36 54.995C100.36 58.415 98 61.305 94.34 62.435V53.405H94.35Z" fill="#222221"/>
<path d="M96.9 67.315C102.39 65.905 106.22 61.425 106.22 56.385C106.22 53.795 105.35 52.005 103.47 50.685L100.97 48.955C99.29 47.695 96.81 47.325 93.87 48.075L88.39 49.475V66.505L91.52 68.685L96.89 67.305L96.9 67.315ZM88.75 49.725L93.87 48.415C99.13 47.065 102.96 49.435 102.96 54.335C102.96 59.235 99.24 63.485 93.87 64.865L88.75 66.175V49.725Z" fill="#222221"/>
<path d="M126.45 54.415C124.49 54.915 122.61 54.715 121.25 53.855L120.95 54.055V56.885L124.04 59.045C125.26 59.625 127.2 59.855 129.82 59.135C133.42 58.215 135.91 55.485 135.91 52.475C135.91 51.075 135.5 50.155 134.53 49.485L131.93 47.645C130.67 46.745 128.66 46.655 126.83 46.505C127.16 45.365 128.46 44.355 130.21 43.915C131.72 43.525 133.59 43.735 135.01 44.365L135.29 44.165V41.475L132.19 39.305C130.86 38.815 129.01 38.825 127.19 39.325C124.11 40.115 121.87 42.185 121.29 44.615V44.035L118.16 41.855L106.44 44.855V61.885L109.57 64.065L121.65 60.975V58.465L118.52 56.285L112.24 57.895V55.715L119.85 53.765V51.475L116.72 49.295L112.24 50.445V48.615L121.15 46.335C121.25 47.365 121.68 47.995 122.47 48.755L124.37 50.575C125.66 51.815 127.96 51.725 129.92 52.135C129.41 53.115 128.09 54.015 126.45 54.435V54.415ZM117.9 44.155L108.98 46.435V51.595L116.46 49.675V51.625L108.98 53.545V59.045L118.26 56.665V58.595L106.78 61.535V45.085L117.89 42.235V44.145L117.9 44.155ZM130.52 51.115C130.52 47.625 121.48 51.115 121.48 45.755C121.48 42.995 123.79 40.525 127.18 39.655C128.9 39.175 130.63 39.165 131.9 39.605V41.795C130.49 41.235 128.9 41.125 127.43 41.505C125.19 42.075 123.64 43.515 123.64 45.015C123.64 48.555 132.78 44.985 132.78 50.375C132.78 53.195 130.34 55.745 126.79 56.655C124.3 57.335 122.48 57.145 121.3 56.625V54.325C122.69 55.085 124.55 55.235 126.45 54.745C128.77 54.145 130.52 52.615 130.52 51.115Z" fill="#222221"/>
<path d="M110.33 68.635L106.76 77.715L114.21 75.805L110.66 68.545L110.33 68.625V68.635ZM113.68 75.605L110.57 76.405L112.14 72.445L113.68 75.615V75.605Z" fill="#222221"/>
<path d="M149.44 63.635V66.025L152.57 68.205L153.51 67.965V68.805C152.53 69.595 151.37 70.165 150.13 70.485C148.89 70.805 147.88 70.845 146.95 70.675C146.41 70.055 146.15 69.175 146.15 67.905C146.15 64.245 148.95 60.975 152.96 59.945C154.64 59.505 156.66 59.665 158.22 60.375L158.5 60.175V57.535L155.42 55.385C153.66 54.885 151.5 55.065 149.93 55.475C144.44 56.885 140.37 61.715 140.37 66.825C140.37 69.475 141.45 71.485 143.25 72.625L145.67 74.315C147.67 75.695 150.04 76.025 152.85 75.305C155.45 74.635 157.86 73.345 159.42 71.665V64.065L156.29 61.885L149.43 63.645L149.44 63.635ZM156.05 69.585C154.56 71.075 152.14 72.375 149.83 72.965C144.63 74.295 140.73 71.675 140.73 66.735C140.73 61.795 144.64 57.175 149.94 55.815C151.76 55.345 153.68 55.285 155.13 55.685V57.845C153.66 57.355 151.93 57.345 150.19 57.805C145.98 58.885 143.03 62.335 143.03 66.185C143.03 70.035 146.03 71.875 150.14 70.825C151.56 70.465 152.73 69.865 153.87 68.915V64.655L149.8 65.695V63.885L156.05 62.285V69.585Z" fill="#222221"/>
<path d="M171.88 50.155V59.865C171.88 63.105 170.17 65.455 167.33 66.185C166.85 66.305 166.4 66.365 165.99 66.375C165.79 65.775 165.7 65.085 165.7 64.335V54.715L162.57 52.535L159.74 53.255V63.065C159.74 65.635 160.51 67.435 161.93 68.405L164.5 70.175C166.06 71.265 167.78 71.465 170.18 70.855C174.71 69.695 177.7 65.785 177.7 60.985V51.635L174.7 49.415L171.87 50.135L171.88 50.155ZM174.45 59.305C174.45 64.005 171.85 67.335 167.28 68.505C162.58 69.705 160.1 67.535 160.1 62.985V53.515L162.32 52.945V62.355C162.32 65.505 164.09 67.355 167.33 66.525C170.37 65.745 172.23 63.195 172.23 59.775V50.395L174.45 49.825V59.295V59.305Z" fill="#222221"/>
<path d="M206.77 53.055L204.17 51.215C202.91 50.315 200.9 50.225 199.07 50.075C199.4 48.935 200.7 47.925 202.45 47.485C203.96 47.095 205.83 47.305 207.25 47.935L207.53 47.735V45.045L204.43 42.875C203.1 42.385 201.25 42.395 199.43 42.895C196.35 43.685 194.11 45.755 193.53 48.185V47.605L190.4 45.425L178.68 48.425V65.455L181.81 67.635L193.89 64.545V62.035L190.76 59.855L184.48 61.465V59.285L192.09 57.335V55.045L188.96 52.865L184.48 54.015V52.185L193.39 49.905C193.49 50.935 193.92 51.565 194.71 52.325L196.61 54.145C197.9 55.385 200.2 55.295 202.16 55.705C201.65 56.685 200.33 57.585 198.69 58.005C196.73 58.505 194.85 58.305 193.49 57.445L193.19 57.645V60.475L196.28 62.635C197.5 63.215 199.44 63.445 202.06 62.725C205.66 61.805 208.15 59.075 208.15 56.065C208.15 54.665 207.74 53.745 206.77 53.075V53.055ZM190.14 47.735L181.22 50.015V55.175L188.7 53.255V55.205L181.22 57.125V62.625L190.5 60.245V62.175L179.02 65.115V48.665L190.13 45.815V47.725L190.14 47.735ZM199.03 60.245C196.54 60.925 194.72 60.735 193.54 60.215V57.915C194.93 58.675 196.79 58.825 198.69 58.335C201.01 57.735 202.76 56.205 202.76 54.705C202.76 51.215 193.72 54.705 193.72 49.345C193.72 46.585 196.03 44.115 199.42 43.245C201.14 42.765 202.87 42.755 204.14 43.195V45.385C202.73 44.825 201.14 44.715 199.67 45.095C197.43 45.665 195.88 47.105 195.88 48.605C195.88 52.145 205.02 48.575 205.02 53.965C205.02 56.785 202.58 59.335 199.03 60.245Z" fill="#222221"/>
<path d="M134.41 59.765V67.955L130.52 63.695L125.03 62.175L122.24 62.885V79.285L116.39 67.335L112.02 65.505L108.89 66.305L101.79 84.455L99.84 83.095L94.35 84.505V73.025L91.22 70.845L88.39 71.565V88.595L91.52 90.775L102.96 87.845L104.41 87.475L106.98 86.815L107.76 84.765L108.67 82.375L115.88 80.525L116.32 81.455L117.02 81.775L120.5 83.345L123.8 82.495L125.36 82.095L128.11 81.395V70.055L134.31 76.875L137.39 79.025L140.28 78.285V61.255L137.15 59.075L134.4 59.775L134.41 59.765ZM99.59 85.475L88.75 88.255V71.805L90.97 71.235V85.695L99.58 83.485V85.475H99.59ZM116.59 81.115L114.91 77.545L106.06 79.815L104.36 84.255L102.28 84.785L101.98 84.865L102.07 84.635L109.13 66.575L111.87 65.875L119.02 80.495L116.61 81.115H116.59ZM136.91 75.915L134.54 76.525L125.06 66.125L124.75 66.305V79.045L122.6 79.595V63.145L124.95 62.545L134.47 72.975L134.78 72.795V60.025L136.91 59.475V75.925V75.915Z" fill="#222221"/>
<g clip-path="url(#clip2_2_263)">
<path d="M139.4 42.455L207.41 24.235V30.955L139.4 49.175V42.455Z" fill="url(#paint0_linear_2_263)"/>
</g>
</g>
<defs>
<linearGradient id="paint0_linear_2_263" x1="147.951" y1="43.6674" x2="216.271" y2="25.3611" gradientUnits="userSpaceOnUse">
<stop stop-color="#55D3EA"/>
<stop offset="0.08" stop-color="#66A0EA"/>
<stop offset="0.19" stop-color="#7F5CEA"/>
<stop offset="0.28" stop-color="#902AEA"/>
<stop offset="0.35" stop-color="#9B0BEA"/>
<stop offset="0.39" stop-color="#A000EB"/>
<stop offset="0.49" stop-color="#B433B7"/>
<stop offset="0.62" stop-color="#CE7477"/>
<stop offset="0.75" stop-color="#E3A843"/>
<stop offset="0.86" stop-color="#F2CD1E"/>
<stop offset="0.95" stop-color="#FBE408"/>
<stop offset="1" stop-color="#FFED00"/>
</linearGradient>
<clipPath id="clip0_2_263">
<rect width="70.55" height="71.75" fill="white" transform="translate(0.849976 19.015)"/>
</clipPath>
<clipPath id="clip1_2_263">
<rect width="119.75" height="90.53" fill="white" transform="translate(88.4 0.234985)"/>
</clipPath>
<clipPath id="clip2_2_263">
<rect width="68.01" height="24.94" fill="white" transform="translate(139.4 24.235)"/>
</clipPath>
</defs>
</svg>
