<svg width="109" height="109" viewBox="0 0 109 109" fill="none" xmlns="http://www.w3.org/2000/svg">
<g filter="url(#filter0_f_221_1121)">
<path d="M70.8583 89.8552C68.4563 90.2487 65.6416 90.552 62.579 90.7473C59.5165 90.9427 56.2678 91.0261 53.0234 90.9929C49.779 90.9596 46.6042 90.8102 43.6852 90.5535C40.7661 90.2968 38.1615 89.938 36.0241 89.498C33.8867 89.058 32.2595 88.5457 31.2379 87.9912C30.2162 87.4367 29.8207 86.8511 30.0746 86.2688C30.3285 85.6865 31.2266 85.1191 32.7162 84.6C34.2059 84.0808 36.2571 83.6204 38.7497 83.2456C44.4483 82.394 49.2097 81.3582 52.7878 80.1916C52.9627 80.1335 53.222 80.085 53.5379 80.0513C53.8539 80.0176 54.2147 79.9998 54.5822 80C54.9495 80 55.3098 80.0179 55.625 80.0518C55.9402 80.0857 56.1985 80.1342 56.3726 80.1924L56.5394 80.2487C60.1433 81.4011 64.8948 82.4246 70.5572 83.2683C73.1812 83.6759 75.2915 84.1794 76.7472 84.7452C78.203 85.311 78.9707 85.9261 78.9992 86.5495C79.0277 87.1729 78.3163 87.7902 76.9125 88.3602C75.5087 88.9302 73.4447 89.4399 70.8583 89.8552ZM54.5822 84.7541C52.5703 84.7541 50.6036 84.8613 48.9307 85.0622C47.2578 85.2632 45.954 85.5487 45.1841 85.8829C44.4141 86.217 44.2127 86.5846 44.6052 86.9393C44.9977 87.294 45.9665 87.6198 47.3892 87.8755C48.8118 88.1312 50.6244 88.3054 52.5977 88.3759C54.571 88.4465 56.6163 88.4103 58.4751 88.2719C60.3339 88.1335 61.9226 87.8991 63.0404 87.5984C64.1582 87.2977 64.7548 86.9442 64.7548 86.5826C64.7515 86.0978 63.6788 85.6331 61.7717 85.2903C59.8647 84.9475 57.2792 84.7547 54.5822 84.7541Z" fill="black"/>
</g>
<g filter="url(#filter1_d_221_1121)">
<path d="M70.8583 30.3483C68.4563 28.1665 65.6416 26.4846 62.579 25.4013C59.5165 24.318 56.2678 23.855 53.0234 24.0395C49.779 24.224 46.6042 25.0523 43.6852 26.4758C40.7661 27.8993 38.1615 29.8894 36.0241 32.3293C33.8867 34.7693 32.2595 37.61 31.2379 40.685C30.2162 43.76 29.8207 47.0074 30.0746 50.2367C30.3285 53.466 31.2266 56.6123 32.7162 59.4912C34.2059 62.37 36.2571 64.9235 38.7497 67.0018C44.4483 71.7243 49.2097 77.4684 52.7878 83.9373C52.9627 84.2595 53.222 84.5284 53.5379 84.7155C53.8539 84.9026 54.2147 85.0009 54.5822 85C54.9495 84.9998 55.3098 84.9005 55.625 84.7127C55.9402 84.5249 56.1985 84.2556 56.3726 83.9333L56.5394 83.621C60.1433 77.2304 64.8948 71.5544 70.5572 66.876C73.1812 64.6156 75.2915 61.8234 76.7472 58.6857C78.203 55.548 78.9707 52.1369 78.9992 48.6801C79.0277 45.2232 78.3163 41.8 76.9125 38.6389C75.5087 35.4777 73.4447 32.6514 70.8583 30.3483ZM54.5822 58.6364C52.5703 58.6364 50.6036 58.0417 48.9307 56.9275C47.2578 55.8134 45.954 54.2297 45.1841 52.3769C44.4141 50.5241 44.2127 48.4853 44.6052 46.5184C44.9977 44.5514 45.9665 42.7447 47.3892 41.3266C48.8118 39.9085 50.6244 38.9428 52.5977 38.5516C54.571 38.1603 56.6163 38.3611 58.4751 39.1286C60.3339 39.896 61.9226 41.1957 63.0404 42.8632C64.1582 44.5307 64.7548 46.4911 64.7548 48.4966C64.7515 51.1848 63.6788 53.7621 61.7717 55.663C59.8647 57.5639 57.2792 58.6332 54.5822 58.6364Z" fill="#9322EB"/>
<path d="M54.5838 86C55.1305 85.9995 55.6671 85.8517 56.1368 85.5718C56.6069 85.2918 56.9925 84.8899 57.2525 84.4085L57.2547 84.4045L57.4161 84.1022C60.959 77.8226 65.6291 72.2449 71.1941 67.647L71.202 67.6404L71.2098 67.6337C73.9415 65.2805 76.1386 62.3736 77.6543 59.1066C79.1701 55.8396 79.9695 52.2879 79.9991 48.6883C80.0288 45.0888 79.2881 41.5244 77.8264 38.233C76.3654 34.9431 74.2178 32.0017 71.527 29.6047C69.0273 27.3351 66.0986 25.5856 62.9125 24.4585C59.7248 23.331 56.3435 22.8491 52.9666 23.0411C49.5898 23.2332 46.2853 24.0953 43.2468 25.577C40.2084 27.0587 37.4971 29.1303 35.2719 31.6704C33.0467 34.2105 31.3526 37.1681 30.2889 40.3697C29.2251 43.5714 28.8134 46.9526 29.0777 50.3151C29.342 53.6775 30.2771 56.9534 31.8281 59.9507C33.379 62.948 35.5146 65.6063 38.1093 67.7698L38.1117 67.7717C43.7133 72.4139 48.3937 78.06 51.9111 84.4183C52.1723 84.8978 52.5585 85.2977 53.0284 85.576C53.4992 85.8548 54.0366 86.0012 54.5838 86ZM54.5838 86C54.5835 86 54.5831 86 54.5828 86L54.5822 85L54.5848 86C54.5845 86 54.5841 86 54.5838 86ZM49.485 56.0952C50.9932 57.0997 52.7666 57.6362 54.5811 57.6364L49.485 56.0952ZM49.485 56.0952C47.9766 55.0906 46.8014 53.6629 46.1075 51.9932M49.485 56.0952L46.1075 51.9932M46.1075 51.9932C45.4137 50.3235 45.2322 48.4864 45.5859 46.7141M46.1075 51.9932L45.5859 46.7141M45.5859 46.7141C45.9395 44.9417 46.8126 43.3133 48.0952 42.0349M45.5859 46.7141L48.0952 42.0349M48.0952 42.0349C49.3778 40.7564 51.0123 39.8854 52.7922 39.5325M48.0952 42.0349L52.7922 39.5325M52.7922 39.5325C54.5721 39.1796 56.417 39.3607 58.0935 40.0529M52.7922 39.5325L58.0935 40.0529M58.0935 40.0529C59.7699 40.7451 61.2022 41.917 62.2097 43.42M58.0935 40.0529L62.2097 43.42M62.2097 43.42C63.217 44.9226 63.7545 46.6888 63.7548 48.4954L62.2097 43.42ZM63.7548 48.4954C63.7518 50.9178 62.7852 53.2408 61.0658 54.9547C59.3463 56.6687 57.0143 57.6335 54.5811 57.6364L63.7548 48.4954Z" stroke="white" stroke-width="2"/>
</g>
<defs>
<filter id="filter0_f_221_1121" x="19" y="69" width="71" height="33" filterUnits="userSpaceOnUse" color-interpolation-filters="sRGB">
<feFlood flood-opacity="0" result="BackgroundImageFix"/>
<feBlend mode="normal" in="SourceGraphic" in2="BackgroundImageFix" result="shape"/>
<feGaussianBlur stdDeviation="5.5" result="effect1_foregroundBlur_221_1121"/>
</filter>
<filter id="filter1_d_221_1121" x="22" y="22" width="65" height="87" filterUnits="userSpaceOnUse" color-interpolation-filters="sRGB">
<feFlood flood-opacity="0" result="BackgroundImageFix"/>
<feColorMatrix in="SourceAlpha" type="matrix" values="0 0 0 0 0 0 0 0 0 0 0 0 0 0 0 0 0 0 127 0" result="hardAlpha"/>
<feOffset dy="16"/>
<feGaussianBlur stdDeviation="3"/>
<feComposite in2="hardAlpha" operator="out"/>
<feColorMatrix type="matrix" values="0 0 0 0 0 0 0 0 0 0 0 0 0 0 0 0 0 0 0.65 0"/>
<feBlend mode="normal" in2="BackgroundImageFix" result="effect1_dropShadow_221_1121"/>
<feBlend mode="normal" in="SourceGraphic" in2="effect1_dropShadow_221_1121" result="shape"/>
</filter>
</defs>
</svg>
