<svg width="169" height="34" viewBox="0 0 169 34" fill="none" xmlns="http://www.w3.org/2000/svg">
<g opacity="0.5">
<g clip-path="url(#clip0_2_16445)">
<path d="M33.4292 31.005L31.824 28.5062H32.567L33.7551 30.4031L34.9573 28.5062H35.6968L34.0811 31.005V32.6732H33.4292V31.005Z" fill="#14304C"/>
<path d="M35.4866 31.1704C35.4767 30.9662 35.5083 30.7621 35.5793 30.5706C35.6504 30.379 35.7594 30.2039 35.8998 30.056C36.0403 29.908 36.2091 29.7902 36.3963 29.7097C36.5834 29.6292 36.7848 29.5876 36.9884 29.5876C37.1919 29.5876 37.3934 29.6292 37.5805 29.7097C37.7676 29.7902 37.9365 29.908 38.0769 30.056C38.2173 30.2039 38.3264 30.379 38.3974 30.5706C38.4685 30.7621 38.5 30.9662 38.4902 31.1704C38.5 31.3745 38.4685 31.5786 38.3974 31.7701C38.3264 31.9617 38.2173 32.1368 38.0769 32.2848C37.9365 32.4328 37.7676 32.5506 37.5805 32.6311C37.3934 32.7116 37.1919 32.7531 36.9884 32.7531C36.7848 32.7531 36.5834 32.7116 36.3963 32.6311C36.2091 32.5506 36.0403 32.4328 35.8998 32.2848C35.7594 32.1368 35.6504 31.9617 35.5793 31.7701C35.5083 31.5786 35.4767 31.3745 35.4866 31.1704ZM37.8769 31.1704C37.8769 30.4981 37.5264 30.0723 36.9866 30.0723C36.4469 30.0723 36.0999 30.4981 36.0999 31.1704C36.0999 31.8426 36.4504 32.2614 36.9936 32.2614C37.5369 32.2614 37.8769 31.8355 37.8769 31.1704Z" fill="#14304C"/>
<path d="M39.2542 29.6605H39.8535V31.4695C39.8535 31.9587 40.0007 32.2121 40.4108 32.2121C40.5171 32.2159 40.6229 32.1966 40.7209 32.1554C40.819 32.1143 40.9071 32.0523 40.979 31.9737C41.051 31.8951 41.1051 31.8017 41.1377 31.7001C41.1703 31.5985 41.1806 31.491 41.1679 31.385V29.6605H41.7672V32.6732H41.1679V32.1875C41.0789 32.359 40.9427 32.5012 40.7756 32.5973C40.6085 32.6933 40.4174 32.7392 40.2251 32.7295C39.5241 32.7295 39.2647 32.3318 39.2647 31.6314L39.2542 29.6605Z" fill="#14304C"/>
<path d="M42.738 29.6605H43.3374V30.1286C43.4125 29.9672 43.5326 29.8311 43.6831 29.7368C43.8336 29.6425 44.0081 29.594 44.1855 29.5972C44.2437 29.5902 44.3026 29.5902 44.3608 29.5972V30.2201C44.2766 30.1948 44.1893 30.1818 44.1014 30.1814C43.9956 30.1768 43.89 30.1951 43.7919 30.2352C43.6938 30.2753 43.6054 30.3362 43.5329 30.4137C43.4603 30.4912 43.4053 30.5835 43.3716 30.6844C43.3378 30.7852 43.3262 30.8921 43.3374 30.9979V32.6485H42.738V29.6605Z" fill="#14304C"/>
<path d="M46.2639 29.6605H46.8913L47.5257 31.92L48.2266 29.6605H48.8154L49.4919 31.92L50.1192 29.6605H50.7431L49.8073 32.6732H49.2185L48.5 30.4841L47.7745 32.6732H47.1927L46.2639 29.6605Z" fill="#14304C"/>
<path d="M51.0656 31.1704C51.0656 30.7709 51.2236 30.3877 51.5049 30.1053C51.7862 29.8228 52.1678 29.6641 52.5656 29.6641C52.9635 29.6641 53.345 29.8228 53.6263 30.1053C53.9077 30.3877 54.0657 30.7709 54.0657 31.1704C54.0657 31.5699 53.9077 31.953 53.6263 32.2355C53.345 32.518 52.9635 32.6767 52.5656 32.6767C52.1678 32.6767 51.7862 32.518 51.5049 32.2355C51.2236 31.953 51.0656 31.5699 51.0656 31.1704ZM53.4559 31.1704C53.4559 30.4982 53.1054 30.0723 52.5621 30.0723C52.0189 30.0723 51.6719 30.4982 51.6719 31.1704C51.6719 31.8426 52.0224 32.2614 52.5621 32.2614C53.1019 32.2614 53.4559 31.8356 53.4559 31.1704Z" fill="#14304C"/>
<path d="M54.8228 29.6605H55.4221V30.1286C55.4972 29.9672 55.6173 29.8312 55.7678 29.7368C55.9184 29.6425 56.0929 29.594 56.2703 29.5972C56.3285 29.5904 56.3873 29.5904 56.4455 29.5972V30.2201C56.3613 30.1951 56.274 30.1821 56.1861 30.1814C56.0803 30.1768 55.9747 30.1951 55.8766 30.2352C55.7785 30.2753 55.6901 30.3362 55.6176 30.4137C55.5451 30.4912 55.49 30.5835 55.4563 30.6844C55.4226 30.7852 55.4109 30.8922 55.4221 30.9979V32.6485H54.8228V29.6605Z" fill="#14304C"/>
<path d="M56.9607 28.5062H57.56V31.0226L58.8007 29.6605H59.5823L58.2715 31.0296L59.7295 32.6732H58.9479L57.546 31.0331V32.6732H56.9467L56.9607 28.5062Z" fill="#14304C"/>
<path d="M60.2587 29.6605H60.8581V30.1286C60.955 29.9577 61.0976 29.8174 61.2698 29.7235C61.442 29.6296 61.6368 29.5858 61.8324 29.5972C62.6806 29.5972 63.1117 30.2553 63.1117 31.1563C63.1117 32.0573 62.6455 32.7225 61.8289 32.7225C61.6346 32.7301 61.4419 32.6835 61.2724 32.5879C61.1029 32.4922 60.9631 32.3511 60.8686 32.1805V33.7642H60.2692L60.2587 29.6605ZM62.5018 31.1633C62.5018 30.4595 62.1969 30.0653 61.6607 30.0653C61.1244 30.0653 60.851 30.4841 60.851 31.1739C60.851 31.8637 61.1034 32.2684 61.6642 32.2684C62.2249 32.2684 62.5018 31.8743 62.5018 31.1633Z" fill="#14304C"/>
<path d="M63.8863 28.5062H64.4891V32.6732H63.8898L63.8863 28.5062Z" fill="#14304C"/>
<path d="M67.1949 32.2508C67.0722 32.4111 66.9121 32.5387 66.7287 32.6221C66.5453 32.7056 66.3443 32.7425 66.1434 32.7295C65.502 32.7295 65.1936 32.3775 65.1936 31.9306C65.1936 31.0613 66.0698 31.0472 66.6867 30.9381C67.1353 30.8642 67.1984 30.8325 67.1984 30.6178C67.1984 30.3011 66.9916 30.0829 66.5815 30.0829C66.5002 30.0703 66.4171 30.0753 66.3379 30.0978C66.2587 30.1202 66.1853 30.1594 66.1225 30.2128C66.0597 30.2662 66.009 30.3325 65.9739 30.4072C65.9388 30.4819 65.9202 30.5634 65.9191 30.646H65.3408C65.4074 29.9914 65.7544 29.5901 66.585 29.5901C67.4157 29.5901 67.7977 29.9878 67.7977 30.7938V32.6591H67.1984L67.1949 32.2508ZM67.1949 31.195C66.578 31.3604 65.7929 31.3076 65.7929 31.8285C65.7929 32.0925 66.0172 32.2614 66.3257 32.2614C66.4366 32.2728 66.5486 32.2606 66.6544 32.2255C66.7603 32.1904 66.8576 32.1333 66.94 32.0579C67.0223 31.9825 67.0879 31.8905 67.1325 31.7879C67.177 31.6853 67.1994 31.5744 67.1984 31.4625L67.1949 31.195Z" fill="#14304C"/>
<path d="M71.2044 31.5645C71.1658 32.3177 70.6892 32.7295 69.9041 32.7295C68.9437 32.7295 68.5021 32.0925 68.5021 31.1704C68.5021 30.2483 68.9928 29.6042 69.9041 29.6042C70.6892 29.6042 71.1728 30.0265 71.2114 30.7797H70.6156C70.6157 30.6868 70.5969 30.5949 70.5604 30.5096C70.5238 30.4243 70.4701 30.3475 70.4028 30.2838C70.3355 30.2202 70.2558 30.1711 70.1689 30.1395C70.0819 30.108 69.9894 30.0947 69.8971 30.1005C69.3819 30.1005 69.0945 30.4524 69.0945 31.1563C69.0945 31.8602 69.3819 32.2121 69.8971 32.2121C69.9892 32.2211 70.0821 32.2104 70.1698 32.1807C70.2575 32.1509 70.3379 32.1029 70.4058 32.0398C70.4737 31.9766 70.5275 31.8997 70.5636 31.8141C70.5998 31.7286 70.6175 31.6363 70.6156 31.5434L71.2044 31.5645Z" fill="#14304C"/>
<path d="M74.534 31.642C74.4849 32.2755 74.0187 32.7295 73.2266 32.7295C72.2453 32.7295 71.8247 32.103 71.8247 31.1704C71.8247 30.2377 72.2873 29.6042 73.2266 29.6042C74.1659 29.6042 74.5445 30.199 74.5445 31.1633V31.2584H72.4416C72.4591 31.913 72.7465 32.2438 73.2161 32.2438C73.3039 32.2535 73.3928 32.2456 73.4775 32.2205C73.5622 32.1954 73.6412 32.1537 73.7097 32.0977C73.7782 32.0417 73.8349 31.9725 73.8765 31.8943C73.9181 31.8161 73.9438 31.7303 73.9521 31.642H74.534ZM73.9521 30.8642C73.9615 30.7637 73.9497 30.6623 73.9176 30.5667C73.8854 30.471 73.8337 30.3832 73.7656 30.3089C73.6976 30.2346 73.6147 30.1755 73.5225 30.1353C73.4303 30.0952 73.3307 30.0749 73.2302 30.0758C72.7815 30.0758 72.5046 30.3363 72.4451 30.8642H73.9521Z" fill="#14304C"/>
<path d="M75.6205 31.9024C75.6996 31.9017 75.7772 31.9246 75.8434 31.9683C75.9096 32.012 75.9613 32.0744 75.9921 32.1476C76.0229 32.2209 76.0313 32.3017 76.0163 32.3797C76.0012 32.4578 75.9635 32.5296 75.9077 32.5861C75.852 32.6425 75.7808 32.6811 75.7032 32.6969C75.6256 32.7126 75.5451 32.7049 75.4719 32.6746C75.3987 32.6444 75.3361 32.5929 75.292 32.5269C75.2479 32.4608 75.2244 32.3831 75.2244 32.3036C75.2208 32.2503 75.2286 32.1968 75.2472 32.1468C75.2658 32.0967 75.2948 32.0512 75.3322 32.0132C75.3697 31.9753 75.4148 31.9458 75.4645 31.9267C75.5142 31.9076 75.5673 31.8993 75.6205 31.9024Z" fill="#14304C"/>
<path d="M78.4769 28.5062H80.2293C80.9864 28.5062 81.4105 28.932 81.4105 29.5374C81.4134 29.713 81.3691 29.8862 81.2821 30.0386C81.1951 30.191 81.0687 30.3169 80.9163 30.4031C81.1421 30.4771 81.3385 30.6214 81.4771 30.815C81.6158 31.0087 81.6894 31.2416 81.6874 31.4801C81.6874 32.2121 81.1827 32.6732 80.373 32.6732H78.4839L78.4769 28.5062ZM80.0857 30.2659C80.1705 30.2757 80.2564 30.2668 80.3375 30.2399C80.4186 30.2131 80.4929 30.1688 80.5553 30.1102C80.6176 30.0516 80.6665 29.9801 80.6986 29.9006C80.7307 29.8212 80.7452 29.7356 80.7411 29.65C80.745 29.5685 80.7314 29.4872 80.7012 29.4115C80.6709 29.3359 80.6248 29.2676 80.5659 29.2115C80.507 29.1554 80.4367 29.1127 80.3599 29.0863C80.2831 29.0599 80.2015 29.0505 80.1207 29.0587H79.1253V30.2659H80.0857ZM80.3275 32.1453C80.4168 32.1565 80.5076 32.1481 80.5934 32.1208C80.6792 32.0935 80.7582 32.0478 80.8248 31.987C80.8914 31.9261 80.9441 31.8515 80.9792 31.7683C81.0144 31.685 81.0312 31.5951 81.0285 31.5047C81.0335 31.411 81.0188 31.3172 80.9854 31.2295C80.952 31.1418 80.9005 31.0621 80.8344 30.9957C80.7683 30.9293 80.6889 30.8776 80.6016 30.8441C80.5143 30.8105 80.4209 30.7958 80.3275 30.8008H79.1534V32.1382L80.3275 32.1453Z" fill="#14304C"/>
<path d="M84.9749 31.642C84.9258 32.2755 84.4597 32.7295 83.6711 32.7295C82.6862 32.7295 82.2692 32.103 82.2692 31.1704C82.2692 30.2377 82.7143 29.5972 83.6641 29.5972C84.6139 29.5972 84.9819 30.192 84.9819 31.1563V31.2513H82.879C82.879 31.9059 83.1804 32.2368 83.6501 32.2368C83.7384 32.2475 83.828 32.2404 83.9136 32.2157C83.9991 32.1911 84.0789 32.1495 84.1481 32.0934C84.2174 32.0373 84.2748 31.9678 84.3168 31.8891C84.3589 31.8103 84.3848 31.7239 84.3931 31.635L84.9749 31.642ZM84.3861 30.8642C84.3983 30.7631 84.3886 30.6606 84.3575 30.5637C84.3265 30.4667 84.2748 30.3777 84.2062 30.3028C84.1376 30.2278 84.0535 30.1687 83.96 30.1295C83.8664 30.0904 83.7654 30.072 83.6641 30.0758C83.2155 30.0758 82.9386 30.3363 82.879 30.8642H84.3861Z" fill="#14304C"/>
<path d="M85.8441 30.1568H85.4235V29.6605H85.8441V28.8933H86.4434V29.6711H87.1444V30.1673H86.4434V31.7476C86.4434 32.0538 86.5906 32.1875 86.871 32.1875C86.9686 32.1863 87.0659 32.1768 87.1619 32.1593V32.6943C87.032 32.7241 86.8992 32.7395 86.7659 32.7401C86.1876 32.7401 85.8441 32.4585 85.8441 31.7828V30.1568Z" fill="#14304C"/>
<path d="M87.8314 30.1568H87.4073V29.6605H87.8314V28.8933H88.4307V29.6711H89.1317V30.1673H88.4307V31.7476C88.4307 32.0538 88.5779 32.1875 88.8548 32.1875C88.9535 32.186 89.052 32.1766 89.1492 32.1593V32.6943C89.018 32.7239 88.8841 32.7393 88.7496 32.7401C88.1713 32.7401 87.8314 32.4585 87.8314 31.7828V30.1568Z" fill="#14304C"/>
<path d="M92.2825 31.642C92.2334 32.2755 91.7673 32.7295 90.9752 32.7295C89.9938 32.7295 89.5732 32.103 89.5732 31.1704C89.5732 30.2377 90.0359 29.6042 90.9752 29.6042C91.9145 29.6042 92.293 30.199 92.293 31.1633V31.2584H90.1901C90.1901 31.913 90.4915 32.2438 90.9612 32.2438C91.0495 32.2545 91.1391 32.2474 91.2246 32.2227C91.3102 32.1981 91.3899 32.1565 91.4592 32.1004C91.5285 32.0443 91.5858 31.9748 91.6279 31.8961C91.67 31.8174 91.6959 31.7309 91.7042 31.642H92.2825ZM91.6937 30.8642C91.7059 30.7631 91.6962 30.6606 91.6651 30.5636C91.6341 30.4667 91.5824 30.3777 91.5138 30.3027C91.4451 30.2278 91.3611 30.1687 91.2675 30.1295C91.1739 30.0903 91.073 30.072 90.9717 30.0758C90.5231 30.0758 90.2462 30.3363 90.1866 30.8642H91.6937Z" fill="#14304C"/>
<path d="M93.1342 29.6605H93.737V30.1286C93.8119 29.9678 93.9314 29.8321 94.0813 29.7378C94.2311 29.6435 94.4048 29.5947 94.5816 29.5972C94.6399 29.5902 94.6987 29.5902 94.7569 29.5972V30.2201C94.6727 30.1948 94.5854 30.1818 94.4975 30.1814C94.3918 30.1767 94.2864 30.195 94.1884 30.2351C94.0904 30.2752 94.0023 30.3362 93.93 30.4138C93.8577 30.4914 93.803 30.5838 93.7697 30.6846C93.7364 30.7854 93.7252 30.8923 93.737 30.9979V32.6485H93.1342V29.6605Z" fill="#14304C"/>
<path d="M95.1214 31.9024C95.2004 31.9024 95.2777 31.9259 95.3434 31.97C95.4091 32.0141 95.4603 32.0768 95.4906 32.1501C95.5208 32.2234 95.5287 32.3041 95.5133 32.3819C95.4979 32.4597 95.4598 32.5312 95.404 32.5873C95.3481 32.6434 95.2769 32.6817 95.1994 32.6971C95.1219 32.7126 95.0415 32.7047 94.9685 32.6743C94.8955 32.6439 94.8331 32.5925 94.7892 32.5265C94.7453 32.4606 94.7219 32.383 94.7219 32.3036C94.7188 32.2501 94.7271 32.1966 94.7461 32.1465C94.7651 32.0965 94.7944 32.051 94.8321 32.0131C94.8698 31.9752 94.9151 31.9458 94.965 31.9267C95.0148 31.9076 95.0681 31.8994 95.1214 31.9024Z" fill="#14304C"/>
<path d="M19.1364 12H21.3445C21.4839 12 21.6176 12.0556 21.7162 12.1546C21.8148 12.2536 21.8702 12.3879 21.8702 12.5279V14.7487H19.1364V12Z" fill="#14304C"/>
<path d="M19.154 17.515V14.7663H16.3992V12.0176H0.525726C0.386295 12.0176 0.252575 12.0732 0.153982 12.1722C0.0553889 12.2712 0 12.4055 0 12.5455L0 33.4686C0 33.6086 0.0553889 33.7429 0.153982 33.8419C0.252575 33.9409 0.386295 33.9965 0.525726 33.9965H21.3795C21.519 33.9965 21.6527 33.9409 21.7513 33.8419C21.8499 33.7429 21.9053 33.6086 21.9053 33.4686V17.515H19.154Z" fill="#14304C"/>
<path d="M18.5301 21.5095V22.1254H17.9167V22.7413V23.3572V23.9731V24.589V25.2049V25.8244V26.4403H18.5301V25.8244V25.2049H19.1434V24.589V23.9731V23.3572V22.7413V22.1254V21.5095H18.5301Z" fill="#F2F2F2"/>
<path d="M17.9168 20.8936H17.3034H16.6901H16.0767V21.5095V22.1254H16.6901V21.5095H17.3034H17.9168H18.5301V20.8936H17.9168Z" fill="#F2F2F2"/>
<path d="M17.9168 26.4402H17.3034V27.0561H17.9168V26.4402Z" fill="#F2F2F2"/>
<path d="M16.6901 27.0562H16.0767V27.6721H16.6901V27.0562Z" fill="#F2F2F2"/>
<path d="M11.7833 16.5823V17.1982V17.8141H12.3966V17.1982V16.5823H11.7833Z" fill="#E0E0E0"/>
<path d="M11.7798 17.8141H11.1664V18.43H11.7798V17.8141Z" fill="#E0E0E0"/>
<path d="M11.7833 15.3505H11.1664V15.9664V16.5823H11.7833V15.9664V15.3505Z" fill="#E0E0E0"/>
<path d="M9.32642 17.1982V17.8141H9.93976V17.1982V16.5823H9.32642V17.1982Z" fill="#E0E0E0"/>
<path d="M9.32636 17.8141H8.71301V18.43H9.32636V17.8141Z" fill="#E0E0E0"/>
<path d="M9.32636 15.3505H8.71301V15.9664V16.5823H9.32636V15.9664V15.3505Z" fill="#E0E0E0"/>
<path d="M6.87299 17.1982V17.8141H7.48633V17.1982V16.5823H6.87299V17.1982Z" fill="#E0E0E0"/>
<path d="M6.87299 17.8141H6.25964V18.43H6.87299V17.8141Z" fill="#E0E0E0"/>
<path d="M6.87299 15.3505H6.25964V15.9664V16.5823H6.87299V15.9664V15.3505Z" fill="#E0E0E0"/>
<path d="M17.3034 21.5095H16.6901V22.1254H16.0767V21.5095V20.8936V20.2777V19.6618H15.4634H14.85V20.2777V20.8936H15.4634V21.5095V22.1254V22.7413V23.3572V23.9731V24.589V25.2049V25.8243V26.4402V27.0561V27.672V28.2879V28.9038H14.85H14.2367V29.5197H13.6233V30.1356H13.01H12.3966H11.7833V30.7516H11.1664H10.5531H9.93973H9.32639H8.71304H8.09969H7.48634H6.873H6.25965H5.6463V31.3675H6.25965H6.873H7.48634H8.09969H8.71304H9.32639H9.93973H10.5531H11.1664H11.7833H12.3966H13.01H13.6233V30.7516H14.2367H14.85V30.1356V29.5197H15.4634H16.0767V28.9038V28.2879H16.6901V27.672H16.0767V27.0561V26.4402V25.8243V25.2049V24.589V23.9731V23.3572V22.7413H16.6901H17.3034V22.1254H17.9168V21.5095H17.3034Z" fill="#C7C7C7"/>
<path d="M6.25965 19.0459H5.64631H5.03296V19.6618H5.64631H6.25965H6.873V19.0459H6.25965Z" fill="white"/>
<path d="M5.64631 20.2777H5.03296V20.8936V21.5095V22.1254V22.7413V23.3572V23.9731V24.589V25.2049H5.64631V24.589H6.25965V23.9731V23.3572V22.7413V22.1254V21.5095H6.873V20.8936V20.2777H6.25965H5.64631Z" fill="white"/>
<path d="M18.5301 25.2049V25.8243V26.4402H19.1434V25.8243V25.2049H18.5301Z" fill="#E0E0E0"/>
<path d="M18.5301 26.4402H17.9167V27.0561H18.5301V26.4402Z" fill="#E0E0E0"/>
<path d="M18.5301 21.5095H17.9167V22.1254H18.5301V21.5095Z" fill="#E0E0E0"/>
<path d="M16.6901 27.0562V27.6721H17.3034H17.9168V27.0562H17.3034H16.6901Z" fill="#E0E0E0"/>
<path d="M14.85 20.2777V19.6618H14.2367H13.6233H13.01H12.3966H11.7833H11.1664H10.5531H9.93975H9.32641H8.71306H8.09971H7.48636H6.87302H6.25967H5.64632H5.03297H4.41963H3.80628H3.19293V20.2777H3.80628H4.41963H5.03297H5.64632H6.25967H6.87302H7.48636H8.09971H8.71306H9.32641H9.93975H10.5531H11.1664H11.7833H12.3966H13.01H13.6233V20.8936V21.5095V22.1254V22.7413V23.3572V23.9731V24.589V25.2049V25.8243V26.4402V27.0561V27.672H13.01V28.2879H12.3966V28.9038H11.7833H11.1664H10.5531V29.5197H9.93975H9.32641V30.1356H8.71306H8.09971H7.48636H6.87302H6.25967H5.64632H5.03297H4.41963V30.7515H5.03297H5.64632H6.25967H6.87302H7.48636H8.09971H8.71306H9.32641H9.93975H10.5531H11.1664H11.7833V30.1356H12.3966H13.01H13.6233V29.5197H14.2367V28.9038H14.85H15.4634V28.2879V27.672V27.0561V26.4402V25.8243V25.2049V24.589V23.9731V23.3572V22.7413V22.1254V21.5095V20.8936H14.85V20.2777Z" fill="#E0E0E0"/>
<path d="M15.4634 19.0459H14.85H14.2367H13.6233H13.01H12.3966H11.7833H11.1664H10.5531H9.93972H9.32638H8.71303H8.09968H7.48633H6.87299V19.6618H7.48633H8.09968H8.71303H9.32638H9.93972H10.5531H11.1664H11.7833H12.3966H13.01H13.6233H14.2367H14.85H15.4634H16.0767V19.0459H15.4634Z" fill="#F2F2F2"/>
<path d="M12.3966 20.2777H11.7833H11.1664H10.5531H9.93975H9.32641H8.71306H8.09971H7.48636H6.87302V20.8936V21.5095H6.25967V22.1254V22.7413V23.3572V23.9731V24.589H5.64632V25.2049H5.03297V24.589V23.9731V23.3572V22.7413V22.1254V21.5095V20.8936V20.2777H4.41963H3.80628H3.19293V20.8936V21.5095V22.1254V22.7413V23.3572V23.9731V24.589V25.2049V25.8243V26.4402V27.0561V27.672V28.2879V28.9038V29.5198H3.80628V30.1357H4.41963H5.03297H5.64632H6.25967H6.87302H7.48636H8.09971H8.71306H9.32641V29.5198H9.93975H10.5531V28.9038H11.1664H11.7833H12.3966V28.2879H13.01V27.672H13.6233V27.0561V26.4402V25.8243V25.2049V24.589V23.9731V23.3572V22.7413V22.1254V21.5095V20.8936V20.2777H13.01H12.3966Z" fill="#F2F2F2"/>
<path d="M4.41963 19.6618H5.03297V19.0459H4.41963H3.80628H3.19293V19.6618H3.80628H4.41963Z" fill="#F2F2F2"/>
<path d="M32.5039 25.7645C32.4513 25.673 32.4023 25.5815 32.3532 25.4865C32.3041 25.3915 32.2656 25.2964 32.227 25.2014C31.5494 23.4065 30.8742 21.6268 30.2012 19.8624C29.5283 18.098 28.853 16.3195 28.1754 14.527C28.1794 14.5037 28.1794 14.4799 28.1754 14.4566C28.1705 14.4357 28.1705 14.414 28.1754 14.3932C28.1754 14.2454 28.2736 14.1715 28.4663 14.1715H30.9828C31.0739 14.167 31.1638 14.1933 31.2382 14.2463C31.3126 14.2992 31.3671 14.3758 31.3929 14.4636L33.8042 21.6785L36.0368 14.4636C36.0645 14.3715 36.1226 14.2916 36.2017 14.2372C36.2807 14.1828 36.3759 14.1571 36.4714 14.1645H39.0334C39.124 14.1548 39.2149 14.1786 39.2893 14.2313C39.3149 14.2526 39.3352 14.2796 39.3486 14.3102C39.3619 14.3407 39.3681 14.374 39.3664 14.4073C39.3717 14.4364 39.3717 14.4662 39.3664 14.4953V14.5199L37.9645 18.5567L39.0159 21.6714L41.5674 14.4636C41.5944 14.3718 41.6519 14.292 41.7304 14.2376C41.8088 14.1831 41.9035 14.1573 41.9985 14.1645H44.4835C44.574 14.1548 44.665 14.1786 44.7393 14.2313C44.7643 14.2531 44.7842 14.2802 44.7975 14.3106C44.8109 14.3411 44.8173 14.3741 44.8164 14.4073C44.8218 14.4364 44.8218 14.4662 44.8164 14.4953V14.5199C44.4589 15.4584 44.0933 16.3852 43.7194 17.3003C43.3479 18.2224 42.9729 19.148 42.5979 20.0701C42.2229 20.9922 41.8478 21.9178 41.4763 22.8469C41.1048 23.776 40.7438 24.6981 40.3933 25.6202C40.3606 25.6948 40.3115 25.761 40.2496 25.8138C40.2154 25.8499 40.174 25.8782 40.1281 25.897C40.0822 25.9159 40.0328 25.9247 39.9833 25.9229H38.0521C37.9587 25.9275 37.866 25.9043 37.7857 25.856C37.7264 25.8097 37.6814 25.7475 37.656 25.6765L36.4118 22.3823C36.2331 22.8645 36.0613 23.3326 35.8826 23.7901C35.7038 24.2476 35.5321 24.7228 35.3639 25.1979L35.2727 25.4337C35.2382 25.5132 35.1972 25.5897 35.1501 25.6625C35.1047 25.7294 35.0505 25.7898 34.9889 25.8419C34.9282 25.8876 34.8544 25.9123 34.7786 25.9123H32.8369C32.7732 25.9207 32.7085 25.9113 32.6498 25.8852C32.5911 25.8592 32.5406 25.8174 32.5039 25.7645Z" fill="#14304C"/>
<path d="M44.5396 20.9077C44.5363 19.9788 44.7782 19.0656 45.2405 18.2611C45.4619 17.8751 45.7329 17.5201 46.0466 17.2053C46.3588 16.8896 46.7126 16.6184 47.0981 16.3993C47.4881 16.1755 47.9051 16.0028 48.3388 15.8855C48.796 15.7625 49.2674 15.7009 49.7407 15.7025C50.4207 15.6992 51.0945 15.8314 51.7232 16.0914C52.3519 16.3513 52.923 16.734 53.4035 17.2171C53.884 17.7002 54.2642 18.2742 54.5223 18.9059C54.7803 19.5376 54.9111 20.2144 54.9069 20.8971C54.9093 21.3727 54.8468 21.8464 54.7211 22.3049C54.6013 22.7416 54.427 23.1614 54.2024 23.5543C53.9797 23.9394 53.7088 24.2942 53.3963 24.6101C53.0825 24.9239 52.729 25.1949 52.3448 25.4161C51.5527 25.8807 50.6511 26.1238 49.7337 26.12C49.2604 26.1215 48.789 26.06 48.3318 25.937C47.8972 25.8188 47.4801 25.6437 47.0911 25.4161C46.7063 25.1958 46.3527 24.9247 46.0396 24.6101C45.7261 24.2951 45.4551 23.9402 45.2335 23.5543C45.0075 23.1622 44.8331 22.7422 44.7148 22.3049C44.592 21.8496 44.533 21.3794 44.5396 20.9077ZM47.417 20.9077C47.4138 21.2408 47.4684 21.5718 47.5783 21.8861C47.6783 22.1766 47.8343 22.4445 48.0374 22.6745C48.2325 22.8968 48.4711 23.0765 48.7384 23.2024C49.0378 23.3336 49.3615 23.3996 49.6882 23.3959C50.0081 23.3996 50.3249 23.3336 50.617 23.2024C50.8849 23.0778 51.1238 22.8979 51.3179 22.6745C51.5155 22.4435 51.6656 22.1756 51.7595 21.8861C51.9651 21.255 51.9651 20.5745 51.7595 19.9434C51.6644 19.648 51.5146 19.3734 51.3179 19.1339C51.1267 18.9019 50.8875 18.7146 50.617 18.5849C50.3267 18.4477 50.009 18.3791 49.6882 18.3843C49.3607 18.3794 49.0362 18.448 48.7384 18.5849C48.4684 18.7156 48.2294 18.9028 48.0374 19.1339C47.8354 19.3726 47.6797 19.6472 47.5783 19.9434C47.4695 20.2531 47.4149 20.5793 47.417 20.9077Z" fill="#14304C"/>
<path d="M56.463 16.4591C56.4615 16.3699 56.482 16.2816 56.5226 16.2022C56.555 16.1274 56.6041 16.0611 56.6663 16.0086C56.7919 15.9209 56.9409 15.8731 57.0939 15.8714H58.282C58.3651 15.8681 58.4474 15.8876 58.5203 15.9277C58.5777 15.9665 58.6276 16.0153 58.6675 16.072C58.709 16.1334 58.7431 16.1996 58.7692 16.2691C58.7985 16.3456 58.8336 16.4197 58.8743 16.4908C58.8743 16.5119 58.9059 16.5612 58.9374 16.6457C58.969 16.7301 59.004 16.8146 59.0391 16.9131L59.1477 17.1912L59.2143 17.3601C59.3742 17.185 59.5251 17.0017 59.6664 16.8111C59.8085 16.6226 59.9631 16.4438 60.1291 16.2761C60.2889 16.1146 60.472 15.9781 60.6723 15.8714C60.8899 15.7627 61.1303 15.7084 61.3733 15.713C61.6282 15.7106 61.8828 15.7318 62.1338 15.7764C62.3509 15.8172 62.5634 15.8797 62.7682 15.9629C62.9761 16.0484 63.1756 16.1532 63.364 16.2761C63.5603 16.4028 63.7741 16.5506 64.0054 16.7196C64.3559 16.9167 64.4365 17.2052 64.2122 17.5924L63.4937 18.8171C63.4071 18.9611 63.2693 19.0667 63.1082 19.1128C62.9387 19.1458 62.7632 19.1198 62.6105 19.0389C62.4074 18.8347 62.1701 18.6679 61.9095 18.5462C61.6581 18.4342 61.3854 18.379 61.1104 18.3843C60.927 18.3806 60.7443 18.4092 60.5707 18.4687C60.4165 18.5262 60.2731 18.6095 60.1466 18.7151C60.0151 18.8273 59.8974 18.9549 59.7961 19.0952C59.684 19.243 59.5753 19.4084 59.4632 19.5879V25.3211C59.4763 25.4855 59.4247 25.6485 59.3195 25.7751C59.2527 25.8323 59.1752 25.8755 59.0915 25.9021C59.0078 25.9287 58.9197 25.9382 58.8323 25.9299H57.0588C56.9761 25.9421 56.8916 25.9349 56.8122 25.9087C56.7327 25.8825 56.6604 25.8382 56.6009 25.7791C56.5414 25.7201 56.4964 25.648 56.4695 25.5685C56.4425 25.489 56.4343 25.4043 56.4455 25.3211L56.463 16.4591Z" fill="#14304C"/>
<path d="M65.5405 13.4887C65.5405 13.4007 65.5405 13.3163 65.5405 13.2424C65.5438 13.1738 65.567 13.1078 65.6071 13.0523C65.6559 12.9941 65.7204 12.9513 65.7929 12.9291C65.9069 12.8971 66.0251 12.8829 66.1434 12.8869H68.029C68.1139 12.8836 68.1982 12.9018 68.2743 12.9397C68.3344 12.9676 68.3872 13.0092 68.4285 13.0611C68.4699 13.113 68.4987 13.1738 68.5126 13.2388C68.5261 13.2953 68.5332 13.3532 68.5337 13.4113V19.2712L71.3726 16.1037C71.4315 16.031 71.5058 15.9725 71.59 15.9323C71.6743 15.8921 71.7665 15.8713 71.8598 15.8714H74.3026C74.59 15.8714 74.7372 15.9875 74.7372 16.2233C74.7381 16.2729 74.7286 16.322 74.7092 16.3676C74.6763 16.4243 74.6375 16.4774 74.5935 16.526L71.3516 19.961L75.4312 25.219H75.4137C75.476 25.279 75.5261 25.3508 75.5609 25.4302C75.5871 25.4914 75.6014 25.5571 75.6029 25.6237C75.6086 25.6703 75.6026 25.7175 75.5854 25.7612C75.5683 25.8048 75.5406 25.8435 75.5048 25.8736C75.4147 25.9228 75.3128 25.946 75.2104 25.9405H72.5502C72.4567 25.9378 72.3672 25.9016 72.2979 25.8384C72.2003 25.7451 72.1133 25.6413 72.0385 25.5287L69.4414 21.8544L68.5652 22.766V25.3246C68.569 25.3797 68.569 25.4349 68.5652 25.49C68.5506 25.5612 68.5233 25.6292 68.4846 25.6906C68.4442 25.7594 68.3892 25.8183 68.3234 25.8631C68.2436 25.9127 68.1508 25.9372 68.057 25.9334H66.0768C65.9887 25.936 65.9022 25.9088 65.8314 25.856C65.7674 25.8106 65.7126 25.7533 65.6702 25.6871C65.634 25.631 65.6046 25.5707 65.5826 25.5076C65.5704 25.4756 65.561 25.4427 65.5545 25.409L65.5405 13.4887Z" fill="#14304C"/>
<path d="M95.8119 24.7016C95.6717 24.8459 95.5139 24.9973 95.3422 25.1627C95.1665 25.3299 94.9778 25.4829 94.7779 25.6202C94.5727 25.765 94.3501 25.8832 94.1155 25.9722C93.8717 26.0663 93.6126 26.1141 93.3515 26.1129C92.6728 26.1246 91.9993 25.9927 91.3747 25.7258C90.7886 25.4658 90.2605 25.09 89.8221 24.6207C89.3811 24.1409 89.0361 23.5806 88.8057 22.9701C88.5629 22.3164 88.4441 21.6229 88.4552 20.9253C88.4435 20.2277 88.5624 19.534 88.8057 18.8805C89.0352 18.2706 89.3804 17.7112 89.8221 17.2334C90.2598 16.7641 90.788 16.3893 91.3747 16.1318C91.9982 15.8601 92.6718 15.7234 93.3515 15.7306C93.6208 15.7272 93.8886 15.77 94.1435 15.8573C94.3751 15.9378 94.5954 16.0478 94.799 16.1846C94.9908 16.3089 95.1693 16.4528 95.3317 16.614C95.4964 16.7794 95.6541 16.9413 95.8013 17.0997V13.4817C95.8013 13.324 95.86 13.1721 95.9661 13.0558C96.0259 12.9948 96.0983 12.9477 96.1783 12.9179C96.2582 12.8881 96.3437 12.8763 96.4287 12.8834H98.2022C98.2765 12.8847 98.35 12.899 98.4195 12.9256C98.4947 12.9549 98.5645 12.9966 98.6262 13.0488C98.6897 13.1012 98.7421 13.1658 98.7805 13.2388C98.8202 13.3148 98.8407 13.3994 98.84 13.4852V25.3211C98.84 25.7258 98.6262 25.9299 98.2022 25.9299H96.6565C96.573 25.9329 96.4897 25.9198 96.4112 25.8912C96.3548 25.8628 96.3048 25.8233 96.264 25.7751C96.2204 25.7168 96.1851 25.6529 96.1588 25.585C96.1273 25.5076 96.0887 25.4196 96.0397 25.3211L95.8119 24.7016ZM91.2766 20.9077C91.2751 21.2406 91.3296 21.5714 91.4378 21.8861C91.539 22.1768 91.6962 22.4447 91.9005 22.6744C92.103 22.8977 92.3486 23.0773 92.6224 23.2024C92.917 23.3332 93.2361 23.3992 93.5582 23.3959C93.8838 23.3988 94.2067 23.3366 94.5081 23.2129C94.7963 23.0971 95.0593 22.9262 95.2826 22.7096C95.7406 22.2643 96.0115 21.6598 96.0397 21.0203V20.9077C96.041 20.5768 95.9766 20.249 95.8504 19.9434C95.728 19.6433 95.5509 19.3688 95.3282 19.1339C95.1033 18.9012 94.8354 18.7148 94.5396 18.5849C94.23 18.4501 93.8957 18.3817 93.5582 18.3842C93.2353 18.3797 92.9154 18.4483 92.6224 18.5849C92.3462 18.7151 92.1002 18.9021 91.9005 19.1339C91.6974 19.3724 91.5405 19.647 91.4378 19.9434C91.3308 20.2535 91.2763 20.5794 91.2766 20.9077Z" fill="#14304C"/>
<path d="M118.832 24.7263C118.374 25.1498 117.844 25.4882 117.269 25.7258C116.686 25.9653 116.061 26.085 115.432 26.0777C114.044 26.0825 112.707 25.5477 111.703 24.5855C111.216 24.1148 110.825 23.5544 110.55 22.9349C110.263 22.2834 110.118 21.5778 110.126 20.8655C110.123 19.9668 110.346 19.0821 110.774 18.2927C110.983 17.9116 111.237 17.5571 111.531 17.2369C111.826 16.9201 112.162 16.6443 112.53 16.4169C112.905 16.1876 113.308 16.0089 113.729 15.8854C114.172 15.7572 114.631 15.6932 115.092 15.6954C115.522 15.6949 115.95 15.7541 116.364 15.8714C117.172 16.0981 117.909 16.5282 118.506 17.1208C118.802 17.4118 119.062 17.738 119.28 18.0921C119.496 18.4425 119.665 18.82 119.781 19.2148C119.901 19.6145 119.961 20.0295 119.96 20.4466C119.96 20.7212 119.96 20.9464 119.96 21.1224C119.96 21.2698 119.918 21.414 119.838 21.5377C119.749 21.6476 119.625 21.7224 119.487 21.7488C119.239 21.7966 118.986 21.8166 118.734 21.8087H113.056C113.094 22.1126 113.204 22.4032 113.375 22.6568C113.514 22.8766 113.695 23.0667 113.907 23.2164C114.112 23.3504 114.339 23.448 114.577 23.505C114.795 23.5621 115.02 23.5916 115.246 23.593C115.442 23.5918 115.636 23.5717 115.828 23.5332C116.026 23.4954 116.22 23.4424 116.41 23.3748C116.587 23.3134 116.758 23.2369 116.922 23.146C117.058 23.0716 117.184 22.9793 117.297 22.8715C117.366 22.8152 117.438 22.7635 117.514 22.7167C117.573 22.6847 117.639 22.6678 117.707 22.6674C117.782 22.6709 117.855 22.6952 117.917 22.7378C118.003 22.7991 118.083 22.8686 118.155 22.9454L118.993 23.8957C119.041 23.9485 119.078 24.0108 119.102 24.0787C119.119 24.1346 119.127 24.1927 119.126 24.2512C119.129 24.349 119.098 24.4449 119.038 24.5221C118.98 24.5998 118.91 24.6685 118.832 24.7263ZM115.036 18.1309C114.832 18.1301 114.631 18.1708 114.444 18.2505C114.25 18.3356 114.068 18.4469 113.904 18.5813C113.733 18.7176 113.58 18.8749 113.448 19.0494C113.321 19.2128 113.211 19.3898 113.122 19.5773H117.153C117.049 19.3798 116.932 19.1893 116.802 19.0072C116.675 18.8363 116.527 18.6825 116.361 18.5497C116.191 18.4138 115.999 18.309 115.793 18.24C115.549 18.1611 115.293 18.1242 115.036 18.1309Z" fill="#14304C"/>
<path d="M133.608 14.3052C133.606 14.238 133.619 14.1711 133.647 14.11C133.675 14.0488 133.717 13.9952 133.769 13.9533C133.912 13.8484 134.069 13.7643 134.235 13.7034L136.026 13.0769H136.1H136.167C136.241 13.0664 136.316 13.0767 136.385 13.1065C136.453 13.1363 136.513 13.1845 136.556 13.2459C136.628 13.3832 136.664 13.5374 136.657 13.6928V16.1881H137.975C138.05 16.1847 138.125 16.1963 138.195 16.2223C138.266 16.2483 138.33 16.2881 138.385 16.3395C138.441 16.3994 138.484 16.4704 138.511 16.548C138.539 16.6256 138.549 16.708 138.543 16.7899V18.3174C138.55 18.4054 138.54 18.4939 138.513 18.5779C138.486 18.6619 138.442 18.7396 138.385 18.8066C138.33 18.8584 138.266 18.8987 138.196 18.9253C138.125 18.9519 138.05 18.9642 137.975 18.9614H136.657V25.3281C136.663 25.4121 136.65 25.4962 136.62 25.5747C136.59 25.6532 136.543 25.724 136.482 25.7821C136.347 25.8918 136.176 25.947 136.002 25.937H134.218C134.136 25.9487 134.052 25.9411 133.973 25.9146C133.894 25.8882 133.822 25.8437 133.763 25.7846C133.705 25.7255 133.66 25.6536 133.634 25.5743C133.608 25.4951 133.6 25.4108 133.612 25.3281V18.9614H133.037C132.63 18.9614 132.427 18.7468 132.427 18.3174V16.7829C132.416 16.7003 132.424 16.6161 132.45 16.5371C132.477 16.4582 132.522 16.3866 132.581 16.3281C132.641 16.2696 132.713 16.2259 132.792 16.2003C132.871 16.1748 132.955 16.1682 133.037 16.1811H133.612L133.608 14.3052Z" fill="#14304C"/>
<path d="M149.071 25.7962C149.01 25.8509 148.935 25.8885 148.854 25.9053C148.784 25.9218 148.712 25.93 148.64 25.9299H147.449C147.364 25.9319 147.28 25.9139 147.203 25.8771C147.136 25.8458 147.077 25.7987 147.032 25.7399C146.982 25.6809 146.942 25.6144 146.912 25.5428C146.88 25.4685 146.853 25.3921 146.832 25.314L146.59 24.318C146.487 24.512 146.37 24.6979 146.24 24.8741C146.077 25.0943 145.884 25.2908 145.668 25.4583C145.416 25.6523 145.136 25.8066 144.838 25.9159C144.484 26.0456 144.11 26.1088 143.734 26.1024C143.188 26.111 142.647 25.9991 142.149 25.7747C141.651 25.5503 141.209 25.2188 140.853 24.8037C140.501 24.3888 140.23 23.9113 140.053 23.3959C139.862 22.8452 139.765 22.2654 139.77 21.682V16.4838C139.759 16.3208 139.804 16.159 139.899 16.0262C139.952 15.9711 140.017 15.9285 140.089 15.9017C140.16 15.8749 140.237 15.8646 140.313 15.8714H142.135C142.298 15.8546 142.462 15.8957 142.598 15.9875C142.648 16.0498 142.684 16.1215 142.706 16.1982C142.728 16.275 142.734 16.3553 142.724 16.4345V21.594C142.724 21.819 142.777 22.0409 142.878 22.2416C142.98 22.4446 143.118 22.6272 143.285 22.78C143.452 22.9363 143.645 23.0614 143.856 23.1496C144.062 23.2383 144.284 23.2838 144.508 23.2833C144.711 23.2817 144.91 23.2361 145.093 23.1496C145.296 23.0599 145.485 22.9414 145.654 22.7976C145.825 22.646 145.968 22.4663 146.078 22.2662C146.186 22.0676 146.243 21.8449 146.243 21.6186V16.4591C146.244 16.3667 146.261 16.275 146.292 16.1881C146.322 16.1062 146.376 16.0352 146.446 15.984C146.507 15.9465 146.571 15.917 146.639 15.896C146.709 15.8798 146.781 15.8715 146.853 15.8714H148.637C148.721 15.8592 148.807 15.8665 148.888 15.8925C148.969 15.9186 149.043 15.9628 149.104 16.0217C149.166 16.0807 149.213 16.153 149.242 16.233C149.272 16.3131 149.283 16.3988 149.275 16.4838V25.3422C149.275 25.4389 149.252 25.5341 149.208 25.6202C149.165 25.7018 149.101 25.7699 149.022 25.8173L149.071 25.7962Z" fill="#14304C"/>
<path d="M151.171 16.4591C151.169 16.3699 151.19 16.2816 151.23 16.2022C151.263 16.1274 151.312 16.0611 151.374 16.0086C151.5 15.9209 151.649 15.8731 151.802 15.8714H152.993C153.075 15.8686 153.156 15.8881 153.228 15.9277C153.286 15.9665 153.335 16.0153 153.375 16.072C153.417 16.1334 153.451 16.1996 153.477 16.2691C153.506 16.3456 153.542 16.4197 153.582 16.4908C153.582 16.5119 153.614 16.5612 153.645 16.6457L153.75 16.9131C153.785 17.0117 153.821 17.1032 153.856 17.1912L153.922 17.3601C154.082 17.185 154.233 17.0017 154.374 16.8111C154.516 16.6226 154.671 16.4438 154.837 16.2761C154.997 16.1146 155.18 15.9781 155.38 15.8714C155.598 15.7627 155.838 15.7084 156.081 15.713C156.336 15.7106 156.591 15.7318 156.842 15.7764C157.059 15.8172 157.271 15.8797 157.476 15.9629C157.684 16.0484 157.883 16.1532 158.072 16.2761C158.268 16.4028 158.482 16.5506 158.713 16.7196C159.064 16.9167 159.144 17.2052 158.92 17.5924L158.219 18.8171C158.132 18.9611 157.995 19.0667 157.834 19.1128C157.664 19.1458 157.489 19.1198 157.336 19.0389C157.133 18.8347 156.896 18.6679 156.635 18.5462C156.384 18.4342 156.111 18.379 155.836 18.3843C155.652 18.3806 155.47 18.4092 155.296 18.4687C155.142 18.5262 154.999 18.6095 154.872 18.7151C154.74 18.8273 154.623 18.9549 154.522 19.0952C154.409 19.243 154.301 19.4084 154.189 19.5879V25.3211C154.202 25.4855 154.15 25.6485 154.045 25.7751C153.979 25.8321 153.902 25.8751 153.819 25.9017C153.736 25.9283 153.648 25.9379 153.561 25.9299H151.784C151.701 25.9421 151.617 25.9349 151.538 25.9087C151.458 25.8825 151.386 25.8382 151.326 25.7791C151.267 25.7201 151.222 25.648 151.195 25.5685C151.168 25.489 151.16 25.4043 151.171 25.3211V16.4591Z" fill="#14304C"/>
<path d="M167.882 24.7263C167.422 25.1505 166.89 25.489 166.312 25.7258C165.728 25.9654 165.102 26.085 164.472 26.0778C163.084 26.0807 161.748 25.5462 160.743 24.5855C160.257 24.1145 159.867 23.5541 159.593 22.9349C159.305 22.2837 159.159 21.5781 159.165 20.8655C159.164 20.4105 159.221 19.9573 159.337 19.5175C159.448 19.0943 159.61 18.6865 159.821 18.3033C160.028 17.9206 160.282 17.5658 160.578 17.2475C160.872 16.9333 161.207 16.6598 161.573 16.4345C161.948 16.2052 162.351 16.0265 162.772 15.9031C163.216 15.7745 163.676 15.7105 164.139 15.713C164.568 15.7127 164.995 15.7719 165.408 15.889C165.812 16.0022 166.201 16.1666 166.564 16.3782C166.923 16.5905 167.255 16.8457 167.553 17.1384C167.848 17.4304 168.108 17.7564 168.327 18.1098C168.542 18.4602 168.709 18.8378 168.825 19.2325C168.944 19.6321 169.004 20.0471 169.004 20.4643C169.004 20.7388 169.004 20.964 169.004 21.14C169.002 21.2872 168.959 21.4309 168.881 21.5553C168.788 21.6688 168.657 21.7441 168.513 21.7665C168.265 21.8144 168.012 21.8344 167.759 21.8263H162.081C162.116 22.1085 162.213 22.3796 162.365 22.6199C162.516 22.8602 162.719 23.064 162.958 23.2165C163.163 23.3492 163.39 23.4467 163.627 23.5051C163.846 23.5617 164.071 23.5912 164.297 23.593C164.493 23.5918 164.689 23.5717 164.882 23.5332C165.078 23.4954 165.272 23.4424 165.46 23.3748C165.638 23.3134 165.81 23.2369 165.975 23.1461C166.111 23.0707 166.237 22.9785 166.35 22.8716C166.418 22.8145 166.489 22.7628 166.564 22.7167C166.625 22.6847 166.692 22.6679 166.76 22.6674C166.835 22.6704 166.906 22.6948 166.967 22.7378C167.054 22.7998 167.135 22.8693 167.209 22.9455L168.043 23.8957C168.093 23.9485 168.131 24.0107 168.155 24.0787C168.171 24.135 168.179 24.1929 168.18 24.2512C168.181 24.3488 168.151 24.4441 168.092 24.5222C168.032 24.5997 167.961 24.6684 167.882 24.7263ZM164.079 18.1309C163.875 18.1301 163.672 18.1708 163.483 18.2505C163.289 18.3356 163.108 18.4469 162.944 18.5814C162.775 18.7154 162.624 18.869 162.492 19.0389C162.362 19.2014 162.251 19.3785 162.162 19.5668H166.193C166.087 19.3699 165.97 19.1796 165.842 18.9967C165.715 18.8257 165.567 18.672 165.401 18.5391C165.23 18.4047 165.038 18.3 164.833 18.2294C164.589 18.1548 164.334 18.1215 164.079 18.1309Z" fill="#14304C"/>
<path d="M83.6921 23.9907H81.7679V25.9229H83.6921V23.9907Z" fill="#14304C"/>
<path d="M106.232 15.8749H104.308V17.8071H106.232V15.8749Z" fill="#14304C"/>
<path d="M121.664 15.8855H119.739V17.8176H121.664V15.8855Z" fill="#14304C"/>
<path d="M124.187 17.7965H121.618V25.3211C121.608 25.4062 121.618 25.4925 121.647 25.5731C121.676 25.6538 121.724 25.7265 121.785 25.7855C121.847 25.8446 121.922 25.8884 122.004 25.9135C122.085 25.9385 122.172 25.9442 122.256 25.9299H124.036C124.107 25.9317 124.178 25.9234 124.247 25.9053C124.315 25.8865 124.38 25.8568 124.439 25.8173C124.511 25.7671 124.565 25.6957 124.594 25.6132C124.628 25.527 124.646 25.435 124.646 25.3422V20.1968C124.66 19.9644 124.726 19.7381 124.839 19.5351C124.948 19.3362 125.089 19.1567 125.256 19.0037C125.416 18.8564 125.6 18.7374 125.799 18.6517C125.983 18.5706 126.181 18.5275 126.381 18.525C126.604 18.526 126.824 18.5714 127.029 18.6588C127.239 18.7437 127.433 18.8626 127.604 19.0107C127.789 19.1821 127.938 19.3892 128.042 19.6196C128.122 19.8003 128.162 19.9958 128.162 20.1933V25.3739C128.152 25.4531 128.158 25.5334 128.18 25.6102C128.201 25.6869 128.238 25.7586 128.288 25.8208C128.425 25.9135 128.59 25.9546 128.754 25.937H130.576C130.652 25.9435 130.729 25.9331 130.801 25.9063C130.872 25.8795 130.937 25.8371 130.99 25.7821C131.086 25.6512 131.132 25.4902 131.12 25.3281V20.1334C131.124 19.55 131.028 18.9702 130.836 18.4195C130.66 17.9038 130.389 17.4262 130.037 17.0117C129.681 16.5958 129.237 16.2641 128.739 16.0402C128.24 15.8163 127.698 15.7058 127.152 15.7165C126.775 15.7087 126.399 15.7707 126.045 15.8995C125.749 16.011 125.472 16.1651 125.221 16.3571C125.005 16.5246 124.813 16.7212 124.65 16.9413C124.527 17.109 124.417 17.2854 124.32 17.4692C124.32 17.4903 124.303 17.5115 124.292 17.5361L124.187 17.7965Z" fill="#14304C"/>
<path d="M106.214 17.7895L105.005 21.6609C104.97 21.5658 104.914 21.4075 104.837 21.1822C104.76 20.957 104.672 20.693 104.577 20.3903C104.483 20.0877 104.374 19.7533 104.259 19.3943C104.143 19.0354 104.024 18.6658 103.908 18.2998C103.792 17.9338 103.677 17.5748 103.558 17.2264C103.438 16.8779 103.351 16.5647 103.26 16.2832C103.225 16.1557 103.149 16.0439 103.042 15.9664C102.94 15.8937 102.817 15.8555 102.692 15.8573H100.673C100.428 15.8573 100.27 15.9347 100.203 16.0861C100.172 16.1775 100.161 16.2747 100.171 16.3708C100.182 16.4669 100.213 16.5595 100.263 16.6421L103.898 25.5745C103.937 25.6742 104.004 25.7608 104.09 25.8243C104.229 25.8949 104.384 25.9253 104.539 25.9123H105.496C105.62 25.9204 105.744 25.8856 105.846 25.8138C105.927 25.7465 105.996 25.6655 106.05 25.5745L109.288 17.7754L106.214 17.7895Z" fill="#14304C"/>
<path d="M87.5089 25.5745L83.3697 14.8508L83.1699 14.4003C83.128 14.3466 83.0811 14.2971 83.0297 14.2524C82.9667 14.1975 82.8853 14.1685 82.8019 14.1715H80.7831C80.7365 14.1717 80.6902 14.18 80.6464 14.1961C80.5994 14.2172 80.5548 14.2431 80.5132 14.2736C80.474 14.303 80.4387 14.3373 80.4081 14.3756C80.3824 14.4048 80.3644 14.4398 80.3555 14.4777L76.0726 25.6132C76.0498 25.6506 76.0412 25.695 76.0482 25.7383C76.0553 25.7816 76.0776 25.8209 76.1111 25.849C76.1808 25.9043 76.2677 25.933 76.3565 25.9299H78.6837C78.7739 25.9341 78.8628 25.9075 78.936 25.8545C79.0092 25.8014 79.0623 25.7251 79.0867 25.6378C79.1849 25.3668 79.2865 25.0994 79.3917 24.8319C79.4968 24.5644 79.595 24.2969 79.6931 24.0294H81.796V21.5025H80.5763C80.6779 21.2315 80.7761 20.9429 80.8812 20.6332C80.9864 20.3235 81.0845 20.0138 81.1826 19.697C81.2808 19.3803 81.3859 19.0635 81.4876 18.7538C81.5892 18.4441 81.6908 18.152 81.7925 17.881L84.4877 25.6519C84.5142 25.7414 84.5682 25.8202 84.6419 25.8772C84.7272 25.9256 84.8244 25.9488 84.9223 25.944H87.1864C87.2402 25.9493 87.2944 25.9432 87.3457 25.9262C87.397 25.9093 87.4442 25.8818 87.4844 25.8455C87.5168 25.8089 87.5367 25.7628 87.5411 25.714C87.5455 25.6653 87.5342 25.6163 87.5089 25.5745Z" fill="#14304C"/>
<path d="M19.21 12.0493H21.4216C21.561 12.0493 21.6947 12.1049 21.7933 12.2039C21.8919 12.3029 21.9473 12.4372 21.9473 12.5772V14.8156H19.21V12.0493Z" fill="#14304C"/>
</g>
<path d="M28.6321 10V2.72727H31.5014C32.053 2.72727 32.523 2.83262 32.9112 3.04332C33.2995 3.25166 33.5954 3.54167 33.799 3.91335C34.005 4.28267 34.108 4.70881 34.108 5.19176C34.108 5.67472 34.0038 6.10085 33.7955 6.47017C33.5871 6.83949 33.2853 7.12713 32.8899 7.3331C32.4969 7.53906 32.0211 7.64205 31.4624 7.64205H29.6335V6.4098H31.2138C31.5097 6.4098 31.7536 6.3589 31.9453 6.2571C32.1394 6.15294 32.2839 6.00971 32.3786 5.82741C32.4756 5.64276 32.5241 5.43087 32.5241 5.19176C32.5241 4.95028 32.4756 4.73958 32.3786 4.55966C32.2839 4.37737 32.1394 4.23651 31.9453 4.13707C31.7512 4.03527 31.505 3.98438 31.2067 3.98438H30.1697V10H28.6321ZM41.79 6.36364C41.79 7.15672 41.6396 7.83144 41.339 8.38778C41.0407 8.94413 40.6335 9.36908 40.1174 9.66264C39.6036 9.95384 39.026 10.0994 38.3844 10.0994C37.7381 10.0994 37.1581 9.95265 36.6444 9.65909C36.1306 9.36553 35.7246 8.94058 35.4263 8.38423C35.128 7.82789 34.9789 7.15436 34.9789 6.36364C34.9789 5.57055 35.128 4.89583 35.4263 4.33949C35.7246 3.78314 36.1306 3.35937 36.6444 3.06818C37.1581 2.77462 37.7381 2.62784 38.3844 2.62784C39.026 2.62784 39.6036 2.77462 40.1174 3.06818C40.6335 3.35937 41.0407 3.78314 41.339 4.33949C41.6396 4.89583 41.79 5.57055 41.79 6.36364ZM40.231 6.36364C40.231 5.84991 40.1541 5.41667 40.0002 5.06392C39.8487 4.71117 39.6344 4.44366 39.3574 4.26136C39.0804 4.07907 38.7561 3.98793 38.3844 3.98793C38.0127 3.98793 37.6884 4.07907 37.4114 4.26136C37.1344 4.44366 36.919 4.71117 36.7651 5.06392C36.6136 5.41667 36.5378 5.84991 36.5378 6.36364C36.5378 6.87737 36.6136 7.31061 36.7651 7.66335C36.919 8.0161 37.1344 8.28362 37.4114 8.46591C37.6884 8.6482 38.0127 8.73935 38.3844 8.73935C38.7561 8.73935 39.0804 8.6482 39.3574 8.46591C39.6344 8.28362 39.8487 8.0161 40.0002 7.66335C40.1541 7.31061 40.231 6.87737 40.231 6.36364ZM44.2926 10L42.2116 2.72727H43.8913L45.0952 7.78054H45.1555L46.4837 2.72727H47.9219L49.2464 7.79119H49.3104L50.5142 2.72727H52.1939L50.1129 10H48.6143L47.2294 5.24503H47.1726L45.7912 10H44.2926ZM53.0169 10V2.72727H57.9174V3.99503H54.5545V5.72798H57.6653V6.99574H54.5545V8.73224H57.9316V10H53.0169ZM59.1399 10V2.72727H62.0092C62.5585 2.72727 63.0272 2.82552 63.4155 3.02202C63.8061 3.21615 64.1032 3.49195 64.3068 3.84943C64.5128 4.20455 64.6158 4.6224 64.6158 5.10298C64.6158 5.58594 64.5116 6.00142 64.3033 6.34943C64.0949 6.69508 63.7931 6.96023 63.3977 7.14489C63.0047 7.32955 62.5289 7.42188 61.9702 7.42188H60.049V6.18608H61.7216C62.0152 6.18608 62.259 6.14583 62.4531 6.06534C62.6473 5.98485 62.7917 5.86411 62.8864 5.70312C62.9834 5.54214 63.032 5.34209 63.032 5.10298C63.032 4.86151 62.9834 4.65791 62.8864 4.49219C62.7917 4.32647 62.6461 4.20099 62.4496 4.11577C62.2554 4.02817 62.0104 3.98438 61.7145 3.98438H60.6776V10H59.1399ZM63.0675 6.69034L64.875 10H63.1776L61.4091 6.69034H63.0675ZM65.7024 10V2.72727H70.603V3.99503H67.2401V5.72798H70.3509V6.99574H67.2401V8.73224H70.6172V10H65.7024ZM74.4036 10H71.8255V2.72727H74.4249C75.1564 2.72727 75.7862 2.87287 76.3141 3.16406C76.842 3.45289 77.248 3.86837 77.5321 4.41051C77.8186 4.95265 77.9618 5.60133 77.9618 6.35653C77.9618 7.11411 77.8186 7.76515 77.5321 8.30966C77.248 8.85417 76.8397 9.27202 76.307 9.56321C75.7767 9.8544 75.1422 10 74.4036 10ZM73.3631 8.68253H74.3397C74.7942 8.68253 75.1766 8.60204 75.4867 8.44105C75.7992 8.2777 76.0336 8.02557 76.1898 7.68466C76.3484 7.34138 76.4277 6.89867 76.4277 6.35653C76.4277 5.81913 76.3484 5.37997 76.1898 5.03906C76.0336 4.69815 75.8004 4.44721 75.4902 4.28622C75.1801 4.12524 74.7978 4.04474 74.3432 4.04474H73.3631V8.68253ZM81.4153 10V2.72727H84.3272C84.8623 2.72727 85.3085 2.80658 85.666 2.9652C86.0235 3.12382 86.2922 3.34399 86.4721 3.62571C86.652 3.90507 86.742 4.22704 86.742 4.59162C86.742 4.87571 86.6852 5.12547 86.5716 5.34091C86.4579 5.55398 86.3017 5.72917 86.1028 5.86648C85.9063 6.00142 85.6814 6.0973 85.4281 6.15412V6.22514C85.7051 6.23698 85.9643 6.3151 86.2058 6.45952C86.4496 6.60393 86.6473 6.80634 86.7988 7.06676C86.9503 7.32481 87.0261 7.63258 87.0261 7.99006C87.0261 8.37595 86.9302 8.72041 86.7385 9.02344C86.5491 9.3241 86.2685 9.56203 85.8968 9.73722C85.5252 9.91241 85.0671 10 84.5225 10H81.4153ZM82.9529 8.7429H84.2065C84.635 8.7429 84.9475 8.66122 85.144 8.49787C85.3405 8.33215 85.4387 8.11198 85.4387 7.83736C85.4387 7.63613 85.3902 7.45857 85.2931 7.30469C85.1961 7.1508 85.0576 7.03007 84.8777 6.94247C84.7001 6.85488 84.4882 6.81108 84.242 6.81108H82.9529V8.7429ZM82.9529 5.7706H84.0929C84.3036 5.7706 84.4906 5.7339 84.6539 5.66051C84.8197 5.58475 84.9499 5.47822 85.0446 5.34091C85.1416 5.2036 85.1902 5.03906 85.1902 4.8473C85.1902 4.58452 85.0967 4.37263 84.9096 4.21165C84.725 4.05066 84.4622 3.97017 84.1213 3.97017H82.9529V5.7706ZM87.6005 2.72727H89.3228L90.9812 5.85938H91.0522L92.7106 2.72727H94.4329L91.7802 7.42898V10H90.2532V7.42898L87.6005 2.72727Z" fill="#14304C"/>
</g>
<defs>
<clipPath id="clip0_2_16445">
<rect width="169" height="22" fill="white" transform="translate(0 12)"/>
</clipPath>
</defs>
</svg>
